<svg xmlns="http://www.w3.org/2000/svg" viewBox="0 0 385.66 279.22"><defs><style>.cls-1,.cls-2{fill:none;stroke:#000;}.cls-1{stroke-miterlimit:10;stroke-width:1.1px;}.cls-2{stroke-linecap:round;stroke-linejoin:round;stroke-width:0.5px;}</style></defs><g id="_2D_Linework::Wide" data-name="2D Linework::Wide"><path class="cls-1" d="M112.43,147.16c-9.74,9.18-17.45,21.23-17.92,35.36-.4,11.57,3.18,20.19,9.93,29.22" transform="translate(-23.41 -75.98)"/><polyline class="cls-1" points="169.59 212.47 55.08 278.58 0.55 247.1 0.55 210.65 95.77 155.68 81.03 135.76"/><polyline class="cls-1" points="311.93 130.29 338.48 145.62 338.48 192.01 298.3 215.21 244.93 184.4"/><line class="cls-1" x1="385.11" y1="88.04" x2="311.93" y2="130.29"/><path class="cls-1" d="M332.56,204.66c9.13-17,6.34-34.6-5.16-49.45-10.72-13.84-27.34-23.46-43-29.58-32.18-12.54-70.5-14.82-104.08-8.89" transform="translate(-23.41 -75.98)"/><polyline class="cls-1" points="385.11 88.04 385.11 33.36 330.58 1.88 252.85 46.76"/><path class="cls-1" d="M284,269.39c-23.25,20.3-63.11,23.82-91,19.06" transform="translate(-23.41 -75.98)"/><polyline class="cls-1" points="73.49 121.87 47.19 106.68 47.19 23.83 87.36 0.64 311.93 130.29"/></g><g id="Layer_3" data-name="Layer 3"><line class="cls-2" x1="298.3" y1="168.81" x2="338.47" y2="145.61"/><line class="cls-2" x1="298.3" y1="168.81" x2="47.19" y2="23.83"/><line class="cls-2" x1="298.3" y1="215.2" x2="298.3" y2="168.81"/><line class="cls-2" x1="0.55" y1="210.65" x2="55.08" y2="242.13"/><line class="cls-2" x1="55.08" y1="242.13" x2="150.29" y2="187.16"/><line class="cls-2" x1="55.08" y1="278.58" x2="55.08" y2="242.13"/><path class="cls-2" d="M279.87,243.83q-5.73,8.29-11.53,16.54" transform="translate(-23.41 -75.98)"/><path class="cls-2" d="M173.7,263.13c-19.13-4.84-41.75-14.64-54.52-31.48" transform="translate(-23.41 -75.98)"/><path class="cls-2" d="M193,288.45c-6.62-8.3-13-16.77-19.29-25.32" transform="translate(-23.41 -75.98)"/><line class="cls-2" x1="256.46" y1="167.85" x2="89.02" y2="71.18"/><path class="cls-2" d="M104.44,211.74c18.48,24.73,54.86,36.44,82.55,40.4,30.21,4.31,63.86,2,92.88-8.31" transform="translate(-23.41 -75.98)"/><line class="cls-2" x1="304.5" y1="79.9" x2="385.11" y2="33.36"/></g></svg>