<?xml version="1.0" encoding="utf-8"?>
<!-- Generator: Adobe Illustrator 25.1.0, SVG Export Plug-In . SVG Version: 6.00 Build 0)  -->
<svg version="1.1" xmlns="http://www.w3.org/2000/svg" xmlns:xlink="http://www.w3.org/1999/xlink" x="0px" y="0px"
	 viewBox="0 0 430.5 430.5" style="enable-background:new 0 0 430.5 430.5;" xml:space="preserve">
<style type="text/css">
	.st0{fill:none;stroke:#000000;stroke-width:0.75;stroke-miterlimit:10;}
	.st1{fill:none;stroke:#000000;stroke-width:0.25;stroke-linecap:round;stroke-linejoin:round;}
</style>
<g id="_x32_D_Linework::Wide">
	<path class="st0" d="M112.19,147.57c-9.74,9.18-17.45,21.23-17.93,35.36c-0.39,11.57,3.19,20.19,9.93,29.22"/>
	<polyline class="st0" points="192.76,288.86 78.25,354.97 23.72,323.49 23.72,287.04 118.94,232.07 104.2,212.16 	"/>
	<polyline class="st0" points="335.1,206.68 361.64,222.01 361.64,268.4 321.47,291.6 268.1,260.79 	"/>
	<line class="st0" x1="408.28" y1="164.43" x2="335.1" y2="206.68"/>
	<path class="st0" d="M332.32,205.08c9.13-17.04,6.33-34.6-5.17-49.45c-10.72-13.84-27.34-23.46-43.04-29.58
		c-32.18-12.54-70.5-14.82-104.08-8.89"/>
	<polyline class="st0" points="408.28,164.43 408.28,109.75 353.75,78.27 276.02,123.15 	"/>
	<path class="st0" d="M283.72,269.8c-23.24,20.3-63.11,23.83-90.96,19.06"/>
	<polyline class="st0" points="96.66,198.26 70.36,183.07 70.36,100.22 110.53,77.03 335.1,206.68 	"/>
</g>
<g id="_x32_D_Linework::Medium">
</g>
<g id="Layer_3">
	<line class="st1" x1="321.47" y1="245.2" x2="361.64" y2="222.01"/>
	<line class="st1" x1="321.47" y1="245.2" x2="70.36" y2="100.22"/>
	<line class="st1" x1="321.47" y1="291.6" x2="321.47" y2="245.2"/>
	<line class="st1" x1="23.72" y1="287.04" x2="78.25" y2="318.52"/>
	<line class="st1" x1="78.25" y1="318.52" x2="173.46" y2="263.55"/>
	<line class="st1" x1="78.25" y1="354.97" x2="78.25" y2="318.52"/>
	<path class="st1" d="M279.63,244.25c-3.82,5.53-7.67,11.04-11.53,16.54"/>
	<path class="st1" d="M173.46,263.55c-19.14-4.84-41.75-14.65-54.53-31.48"/>
	<path class="st1" d="M192.76,288.86c-6.63-8.29-13-16.77-19.29-25.31"/>
	<line class="st1" x1="279.63" y1="244.25" x2="112.19" y2="147.57"/>
	<path class="st1" d="M104.2,212.15c18.48,24.73,54.86,36.44,82.55,40.4c30.21,4.32,63.86,1.96,92.88-8.31"/>
	<line class="st1" x1="327.67" y1="156.29" x2="408.28" y2="109.75"/>
</g>
</svg>
