<?xml version="1.0" encoding="utf-8"?>
<!-- Generator: Adobe Illustrator 25.1.0, SVG Export Plug-In . SVG Version: 6.00 Build 0)  -->
<svg version="1.1" id="Layer_1" xmlns="http://www.w3.org/2000/svg" xmlns:xlink="http://www.w3.org/1999/xlink" x="0px" y="0px"
	 viewBox="0 0 432 432" style="enable-background:new 0 0 432 432;" xml:space="preserve">
<style type="text/css">
	.st0{fill:none;stroke:#010101;stroke-width:0.25;stroke-linecap:round;stroke-linejoin:round;}
	.st1{fill:none;stroke:#010101;stroke-width:0.75;stroke-linecap:round;stroke-linejoin:round;}
</style>
<line class="st0" x1="354.24" y1="153.35" x2="302.54" y2="258.75"/>
<line class="st0" x1="202.28" y1="201.33" x2="354.24" y2="153.35"/>
<line class="st0" x1="348.64" y1="207.88" x2="354.24" y2="153.35"/>
<line class="st0" x1="171.22" y1="346.65" x2="302.54" y2="258.75"/>
<line class="st0" x1="171.22" y1="346.65" x2="147.11" y2="260.86"/>
<line class="st0" x1="212.83" y1="148.28" x2="210.44" y2="120.64"/>
<line class="st0" x1="164.5" y1="363.54" x2="171.22" y2="346.65"/>
<line class="st0" x1="210.44" y1="120.64" x2="190.92" y2="167.83"/>
<line class="st0" x1="210.44" y1="120.64" x2="225.85" y2="68.85"/>
<line class="st0" x1="147.11" y1="260.86" x2="115" y2="255.09"/>
<line class="st0" x1="96.14" y1="305.93" x2="115" y2="255.09"/>
<line class="st0" x1="147.11" y1="260.86" x2="202.28" y2="201.33"/>
<line class="st0" x1="212.83" y1="148.28" x2="202.28" y2="201.33"/>
<line class="st0" x1="353.43" y1="115.57" x2="212.83" y2="148.28"/>
<line class="st0" x1="190.92" y1="167.83" x2="202.28" y2="201.33"/>
<line class="st0" x1="210.44" y1="120.64" x2="76.82" y2="162.36"/>
<line class="st0" x1="115" y1="255.09" x2="190.92" y2="167.83"/>
<line class="st0" x1="76.82" y1="162.36" x2="115" y2="255.09"/>
<line class="st0" x1="302.54" y1="258.75" x2="324.06" y2="258.76"/>
<line class="st1" x1="353.18" y1="163.64" x2="354.24" y2="153.35"/>
<line class="st1" x1="164.5" y1="363.54" x2="312.26" y2="283.15"/>
<line class="st1" x1="96.14" y1="305.93" x2="164.5" y2="363.54"/>
<line class="st1" x1="71.53" y1="228.1" x2="96.14" y2="305.93"/>
<line class="st1" x1="76.82" y1="162.36" x2="71.53" y2="228.1"/>
<line class="st1" x1="107.28" y1="96.72" x2="76.82" y2="162.36"/>
<line class="st1" x1="225.85" y1="68.85" x2="107.28" y2="96.72"/>
<line class="st1" x1="353.43" y1="115.57" x2="225.85" y2="68.85"/>
<line class="st1" x1="354.24" y1="153.35" x2="353.43" y2="115.57"/>
<line class="st1" x1="361.04" y1="180.72" x2="353.18" y2="163.64"/>
<line class="st1" x1="348.28" y1="208.68" x2="361.04" y2="180.72"/>
<line class="st1" x1="312.26" y1="283.15" x2="348.28" y2="208.68"/>
</svg>
