<?xml version="1.0" encoding="utf-8"?>
<!-- Generator: Adobe Illustrator 25.1.0, SVG Export Plug-In . SVG Version: 6.00 Build 0)  -->
<svg version="1.1" xmlns="http://www.w3.org/2000/svg" xmlns:xlink="http://www.w3.org/1999/xlink" x="0px" y="0px"
	 viewBox="0 0 432 432" style="enable-background:new 0 0 432 432;" xml:space="preserve">
<style type="text/css">
	.st0{fill:none;stroke:#000000;stroke-width:0.75;stroke-linecap:round;stroke-linejoin:round;}
	.st1{fill:none;stroke:#000000;stroke-width:0.25;stroke-linecap:round;stroke-linejoin:round;}
</style>
<g id="Wide">
	<path class="st0" d="M159.15,174.97c3.55,1.07,7.02,2.33,10.43,3.77"/>
	<path class="st0" d="M239.26,69.22c-5.44,0.03-10.81,0.42-16.2,1.16"/>
	<line class="st0" x1="256.76" y1="118.23" x2="253.26" y2="120.25"/>
	<path class="st0" d="M242.99,116.34c3.49,1.15,6.9,2.45,10.27,3.91"/>
	<path class="st0" d="M256.76,85.72c-15.41-7.12-30.52-11.71-47.75-12.14c-0.24-0.01-0.47-0.01-0.71-0.01"/>
	<path class="st0" d="M270.75,82.06c-14.74-6.77-29.23-11.14-45.68-11.64c-0.19-0.01-0.37-0.01-0.56-0.01
		c-6.31-0.17-12.44,0.38-18.62,1.69c-0.46,0.1-0.93,0.2-1.39,0.31"/>
	<path class="st0" d="M284.74,80.2c-14.7-6.68-29.06-10.88-45.48-10.98"/>
	<path class="st0" d="M298.73,80.37c-14.8-6.63-29.11-10.6-45.64-10"/>
	<path class="st0" d="M312.72,82.96c-9.43-4.12-18.89-7.05-29.17-8.3"/>
	<path class="st0" d="M326.71,88.59c-4.56-1.94-9.2-3.52-13.99-4.78"/>
	<line class="st0" x1="242.99" y1="121.53" x2="242.99" y2="89.22"/>
	<line class="st0" x1="314.71" y1="140.51" x2="310.65" y2="133.47"/>
	<path class="st0" d="M242.99,89.22c-32.18-18.58-76.91-32.55-113.77-11.27"/>
	<line class="st0" x1="239.5" y1="123.55" x2="242.99" y2="121.53"/>
	<path class="st0" d="M215.31,112.15c8.43,3.11,16.43,6.88,24.19,11.4"/>
	<line class="st0" x1="37.11" y1="273.94" x2="37.16" y2="273.97"/>
	<line class="st0" x1="89.82" y1="268.11" x2="86.21" y2="262.02"/>
	<path class="st0" d="M145.19,179c-20.16-8.8-44.71-13.22-66.14-2.72"/>
	<line class="st0" x1="37.17" y1="273.91" x2="37.11" y2="273.94"/>
	<path class="st0" d="M159.25,160.34c-22.02-9.84-49.07-14.96-72.6-3.32"/>
	<line class="st0" x1="35.46" y1="256.84" x2="35.65" y2="256.94"/>
	<path class="st0" d="M261.49,117.23c1.13-0.58,2.28-1.11,3.46-1.59"/>
	<line class="st0" x1="35.68" y1="256.71" x2="35.46" y2="256.84"/>
	<path class="st0" d="M237.89,159.19c2.31-15.91,9.01-32.58,23.6-41.97"/>
	<line class="st0" x1="173.29" y1="144.09" x2="173.08" y2="176.75"/>
	<path class="st0" d="M173.29,144.09c-23.46-10.64-52.43-16.32-77.59-3.79"/>
	<line class="st0" x1="240.16" y1="148.39" x2="260.31" y2="160.03"/>
	<line class="st0" x1="289.99" y1="161.01" x2="266.45" y2="147.41"/>
	<path class="st0" d="M187.32,129.89c-24.53-11.25-54.96-17.34-81.34-4.15"/>
	<line class="st0" x1="187.32" y1="129.89" x2="187.11" y2="162.53"/>
	<path class="st0" d="M310.65,133.47c9.34-3.78,17.34-2.95,26.56-0.09"/>
	<path class="st0" d="M201.33,117.5c-25.29-11.68-56.74-18.06-83.98-4.42"/>
	<line class="st0" x1="340.7" y1="131.36" x2="337.2" y2="133.38"/>
	<line class="st0" x1="289.99" y1="161.01" x2="293.49" y2="158.99"/>
	<path class="st0" d="M293.49,158.99c1.93-8.78,4.94-15.86,11.9-22.08"/>
	<path class="st0" d="M215.34,106.79c-25.76-11.94-57.83-18.51-85.61-4.6"/>
	<path class="st0" d="M125.73,79.97c-17.78,10.27-29.73,26.75-37.06,45.3"/>
	<line class="st0" x1="340.7" y1="98.46" x2="340.7" y2="131.36"/>
	<path class="st0" d="M283.81,123.57c12.47-6.32,27.1-4.83,39.4-0.26"/>
	<path class="st0" d="M340.7,98.46c-4.56-1.82-9.18-3.2-13.99-4.19"/>
	<line class="st0" x1="326.71" y1="121.3" x2="323.21" y2="123.32"/>
	<path class="st0" d="M214.62,161.92c1.94-14.98,7.35-30.72,18.71-41.77"/>
	<path class="st0" d="M256.76,112.68c3.57,1.13,7.06,2.43,10.49,3.91"/>
	<line class="st0" x1="86.28" y1="365.34" x2="88.75" y2="363.92"/>
	<line class="st0" x1="88.75" y1="363.92" x2="116.73" y2="347.76"/>
	<path class="st0" d="M130.41,88.56c-46.54,27.34-71.72,76.37-77.42,127.88c-5.71,51.61,7.69,104.57,33.29,148.91"/>
	<line class="st0" x1="260.31" y1="160.03" x2="263.81" y2="158.01"/>
	<path class="st0" d="M116.73,347.76c-14.55-25.21-23.4-50.68-26.91-79.66"/>
	<path class="st0" d="M263.81,158.01c2.24-13.17,8.06-26.64,20.04-34.45"/>
	<line class="st0" x1="326.71" y1="88.59" x2="326.71" y2="121.3"/>
	<line class="st0" x1="289.62" y1="126.99" x2="286.85" y2="122.2"/>
	<line class="st0" x1="234.39" y1="161.21" x2="216.68" y2="150.99"/>
	<path class="st0" d="M284.74,112.25c1.25,0.04,2.5,0.11,3.75,0.23"/>
	<path class="st0" d="M270.75,113.73c1.74-0.44,3.48-0.78,5.26-1.02"/>
	<line class="st0" x1="234.39" y1="161.21" x2="237.89" y2="159.19"/>
	<line class="st0" x1="312.24" y1="141.94" x2="314.71" y2="140.51"/>
	<line class="st0" x1="321.05" y1="149.11" x2="311.77" y2="133.04"/>
	<path class="st0" d="M297.15,113.85c4.13,0.94,8.13,2.19,12.07,3.75"/>
	<line class="st0" x1="312.72" y1="115.58" x2="309.22" y2="117.6"/>
	<line class="st0" x1="312.72" y1="82.96" x2="312.72" y2="115.58"/>
	<path class="st0" d="M289.62,126.99c7.92,4.45,15.42,9.41,22.62,14.95"/>
	<path class="st0" d="M321.05,149.11c18.33,15.91,32.94,33.65,45.04,54.68"/>
	<line class="st0" x1="211.12" y1="163.94" x2="195.37" y2="154.84"/>
	<line class="st0" x1="368.56" y1="202.37" x2="366.08" y2="203.8"/>
	<path class="st0" d="M396.54,186.22c-15.01-25.99-33-47.97-55.84-67.51"/>
	<path class="st0" d="M239.05,69.22c-17.73-3.04-34.88-3.46-52.72-0.81"/>
	<line class="st0" x1="396.54" y1="186.22" x2="368.56" y2="202.37"/>
	<path class="st0" d="M51.69,238.93c-9.1,10.51-12.66,21.74-14.53,35.04"/>
	<line class="st0" x1="56.04" y1="284.87" x2="37.16" y2="273.97"/>
	<path class="st0" d="M86.21,262.02c9.51-4.03,17.66-3.24,27.1-0.33"/>
	<path class="st0" d="M284.74,111.33c3.57,1.01,7.06,2.22,10.49,3.63"/>
	<line class="st0" x1="113.31" y1="261.69" x2="116.8" y2="259.7"/>
	<line class="st0" x1="298.73" y1="112.94" x2="295.23" y2="114.96"/>
	<path class="st0" d="M117.01,226.69c-14.46-5.81-31.92-8.12-46.97-1.07"/>
	<line class="st0" x1="117.01" y1="226.69" x2="116.8" y2="259.7"/>
	<path class="st0" d="M53.37,213.21c-11.6,13.08-15.71,27.05-17.72,43.73"/>
	<line class="st0" x1="40.4" y1="259.69" x2="35.65" y2="256.94"/>
	<path class="st0" d="M116.97,232.62c3.57,0.7,7.02,1.67,10.44,2.92"/>
	<path class="st0" d="M131.11,200.72c-17.75-7.47-39.11-11.01-57.84-1.99"/>
	<line class="st0" x1="127.41" y1="235.53" x2="130.91" y2="233.54"/>
	<line class="st0" x1="131.11" y1="200.72" x2="130.91" y2="233.54"/>
	<path class="st0" d="M57.05,192.67c-12.8,14.86-17.2,30.62-19.25,49.36"/>
	<line class="st0" x1="38.42" y1="242.39" x2="37.8" y2="242.03"/>
	<path class="st0" d="M131.05,210.38c3.56,0.89,7.02,2,10.43,3.34"/>
	<line class="st0" x1="211.12" y1="163.94" x2="214.62" y2="161.92"/>
	<line class="st0" x1="298.73" y1="80.37" x2="298.73" y2="112.94"/>
	<line class="st0" x1="141.49" y1="213.73" x2="144.98" y2="211.74"/>
	<line class="st0" x1="189.96" y1="167.87" x2="183.89" y2="164.36"/>
	<path class="st0" d="M270.75,110.95c3.57,1.08,7.06,2.35,10.49,3.8"/>
	<line class="st0" x1="145.19" y1="179" x2="144.98" y2="211.74"/>
	<path class="st0" d="M61.56,176.69c-8.4,10.63-13.06,22-16.16,34.99"/>
	<path class="st0" d="M145.11,191.41c3.55,1,7.02,2.2,10.43,3.6"/>
	<line class="st0" x1="284.74" y1="112.74" x2="281.24" y2="114.75"/>
	<line class="st0" x1="189.96" y1="167.87" x2="193.46" y2="165.85"/>
	<path class="st0" d="M193.46,165.85c0.58-4.86,1.49-9.61,2.74-14.34"/>
	<line class="st0" x1="155.54" y1="195.01" x2="159.04" y2="193.02"/>
	<line class="st0" x1="159.25" y1="160.34" x2="159.04" y2="193.02"/>
	<path class="st0" d="M64.75,167.69c-3.05,4.89-5.59,9.96-7.67,15.34"/>
	<line class="st0" x1="129.23" y1="77.95" x2="125.73" y2="79.97"/>
	<line class="st0" x1="284.74" y1="80.2" x2="284.74" y2="112.74"/>
	<path class="st0" d="M233.92,69.37c-2.95,0.18-5.87,0.53-8.78,1.05"/>
	<line class="st0" x1="173.12" y1="171.37" x2="174.07" y2="170.81"/>
	<line class="st0" x1="270.75" y1="114.58" x2="267.25" y2="116.59"/>
	<line class="st0" x1="169.59" y1="178.74" x2="173.08" y2="176.75"/>
	<path class="st0" d="M173.18,160.64c3.55,1.12,7.01,2.41,10.43,3.88"/>
	<line class="st0" x1="183.61" y1="164.52" x2="187.11" y2="162.53"/>
	<path class="st0" d="M174.07,170.81c0.36-3.16,0.85-6.29,1.47-9.4"/>
	<line class="st0" x1="270.75" y1="82.06" x2="270.75" y2="114.58"/>
	<line class="st0" x1="256.76" y1="85.72" x2="256.76" y2="118.23"/>
	<path class="st0" d="M201.21,137.4c3.54,1.17,7.01,2.5,10.43,4"/>
	<line class="st0" x1="201.33" y1="117.5" x2="201.13" y2="150.13"/>
	<line class="st0" x1="197.63" y1="152.12" x2="201.13" y2="150.13"/>
	<path class="st0" d="M187.2,148.17c3.54,1.15,7.01,2.47,10.43,3.95"/>
	<line class="st0" x1="215.34" y1="106.79" x2="215.14" y2="139.41"/>
	<line class="st0" x1="211.64" y1="141.4" x2="215.14" y2="139.41"/>
</g>
<g id="Medium">
	<line class="st1" x1="215.34" y1="106.79" x2="211.84" y2="108.78"/>
	<line class="st1" x1="129.73" y1="102.19" x2="126.22" y2="104.18"/>
	<line class="st1" x1="113.84" y1="115.08" x2="117.38" y2="121.27"/>
	<line class="st1" x1="117.35" y1="113.08" x2="113.84" y2="115.08"/>
	<line class="st1" x1="201.33" y1="117.5" x2="197.84" y2="119.49"/>
	<line class="st1" x1="126.22" y1="104.18" x2="128.74" y2="108.58"/>
	<line class="st1" x1="211.84" y1="108.78" x2="211.64" y2="141.4"/>
	<line class="st1" x1="102.47" y1="127.73" x2="107.13" y2="135.89"/>
	<path class="st1" d="M253.26,87.74c-11.79-5.45-23.64-9.39-36.58-11.21"/>
	<line class="st1" x1="253.26" y1="87.74" x2="256.76" y2="85.72"/>
	<line class="st1" x1="253.26" y1="87.74" x2="253.26" y2="120.25"/>
	<line class="st1" x1="187.32" y1="129.89" x2="183.82" y2="131.88"/>
	<line class="st1" x1="105.98" y1="125.74" x2="102.47" y2="127.73"/>
	<line class="st1" x1="173.29" y1="144.09" x2="169.79" y2="146.08"/>
	<path class="st1" d="M267.25,84.07c-19.61-9.01-37.88-13.97-59.99-10.84"/>
	<line class="st1" x1="267.25" y1="84.07" x2="270.75" y2="82.06"/>
	<line class="st1" x1="95.7" y1="140.3" x2="92.19" y2="142.3"/>
	<line class="st1" x1="267.25" y1="84.07" x2="267.25" y2="116.59"/>
	<line class="st1" x1="92.19" y1="142.3" x2="98.13" y2="152.69"/>
	<line class="st1" x1="169.79" y1="146.08" x2="169.59" y2="178.74"/>
	<line class="st1" x1="159.25" y1="160.34" x2="155.75" y2="162.33"/>
	<path class="st1" d="M281.24,82.21c-14.98-6.81-29.57-11.05-46.3-10.98"/>
	<line class="st1" x1="281.24" y1="82.21" x2="284.74" y2="80.2"/>
	<path class="st1" d="M86.65,157.02c-1.17,0.67-2.34,1.33-3.51,2"/>
	<line class="st1" x1="155.75" y1="162.33" x2="155.54" y2="195.01"/>
	<path class="st1" d="M189.96,167.87c0.7-5.94,1.9-11.7,3.63-17.42"/>
	<line class="st1" x1="145.19" y1="179" x2="141.69" y2="180.99"/>
	<path class="st1" d="M79.05,176.28c-1.17,0.67-2.34,1.33-3.51,2"/>
	<line class="st1" x1="281.24" y1="82.21" x2="281.24" y2="114.75"/>
	<line class="st1" x1="75.54" y1="178.27" x2="82.95" y2="191.24"/>
	<path class="st1" d="M295.23,82.39c-8.99-4.02-18.06-7.04-27.8-8.73"/>
	<line class="st1" x1="295.23" y1="82.39" x2="298.73" y2="80.37"/>
	<line class="st1" x1="141.69" y1="180.99" x2="141.49" y2="213.73"/>
	<line class="st1" x1="117.01" y1="226.69" x2="113.51" y2="228.68"/>
	<line class="st1" x1="113.51" y1="228.68" x2="113.31" y2="261.69"/>
	<path class="st1" d="M323.52,147.69c18.33,15.91,32.94,33.65,45.04,54.68"/>
	<line class="st1" x1="295.23" y1="82.39" x2="295.23" y2="114.96"/>
	<path class="st1" d="M292.09,125.56c7.92,4.45,15.42,9.41,22.62,14.95"/>
	<line class="st1" x1="314.57" y1="132.18" x2="323.52" y2="147.69"/>
	<line class="st1" x1="323.52" y1="147.69" x2="321.05" y2="149.11"/>
	<path class="st1" d="M309.22,84.98c-3.44-1.51-6.93-2.85-10.49-4.03"/>
	<line class="st1" x1="309.22" y1="84.98" x2="312.72" y2="82.96"/>
	<path class="st1" d="M267.42,116.5c5.27,2.05,10.41,4.34,15.46,6.9"/>
	<path class="st1" d="M269.89,115.07c5.27,2.05,10.41,4.34,15.46,6.9"/>
	<line class="st1" x1="289.59" y1="121.23" x2="292.09" y2="125.56"/>
	<line class="st1" x1="292.09" y1="125.56" x2="289.62" y2="126.99"/>
	<line class="st1" x1="309.22" y1="84.98" x2="309.22" y2="117.6"/>
	<line class="st1" x1="282.88" y1="123.4" x2="285.35" y2="121.97"/>
	<line class="st1" x1="285.35" y1="121.97" x2="281.17" y2="114.73"/>
	<path class="st1" d="M323.21,90.61c-3.44-1.45-6.92-2.72-10.49-3.8"/>
	<line class="st1" x1="323.21" y1="90.61" x2="326.71" y2="88.59"/>
	<path class="st1" d="M134.22,86.36c-47.09,26.99-72.75,76.12-78.67,127.88c-5.93,51.85,7.49,105.13,33.2,149.67"/>
	<path class="st1" d="M211.12,163.94c2.08-16.1,8.2-33.14,21.41-44.2"/>
	<line class="st1" x1="323.21" y1="90.61" x2="323.21" y2="123.32"/>
	<path class="st1" d="M260.31,160.03c2.47-14.47,9.27-29.24,23.5-36.45"/>
	<path class="st1" d="M239.5,91.24c-32.18-18.58-76.91-32.55-113.76-11.27"/>
	<path class="st1" d="M211.84,108.78c-25.76-11.94-57.84-18.52-85.62-4.59"/>
	<line class="st1" x1="197.84" y1="119.49" x2="197.63" y2="152.12"/>
	<path class="st1" d="M197.84,119.49c-25.3-11.68-56.75-18.07-84-4.42"/>
	<path class="st1" d="M289.99,161.01c2.26-10.31,5.74-18.12,14.9-24.44"/>
	<line class="st1" x1="183.82" y1="131.88" x2="183.61" y2="164.52"/>
	<path class="st1" d="M337.2,100.48c-3.43-1.36-6.91-2.49-10.49-3.4"/>
	<line class="st1" x1="337.2" y1="100.48" x2="340.7" y2="98.46"/>
	<path class="st1" d="M183.82,131.88c-24.54-11.25-54.97-17.34-81.35-4.15"/>
	<line class="st1" x1="337.2" y1="100.48" x2="337.2" y2="133.38"/>
	<path class="st1" d="M169.79,146.08c-23.46-10.64-52.44-16.32-77.6-3.78"/>
	<path class="st1" d="M234.39,161.21c2.51-17.23,10.17-35.25,27.1-43.99"/>
	<path class="st1" d="M155.75,162.33c-22.02-9.84-49.08-14.96-72.61-3.31"/>
	<path class="st1" d="M141.69,180.99c-20.16-8.8-44.72-13.22-66.15-2.72"/>
	<path class="st1" d="M113.51,228.68c-6.16-2.48-12.38-4.11-18.96-4.97c-1.28-0.16-2.56-0.28-3.85-0.36
		c-0.29-0.02-0.59-0.03-0.88-0.05c-0.84-0.04-1.68-0.06-2.53-0.06c-0.12,0-0.24,0-0.36,0c-0.97,0-1.94,0.03-2.9,0.09
		c-0.26,0.01-0.51,0.03-0.77,0.05c-0.35,0.02-0.7,0.05-1.04,0.08c-1.44,0.13-2.86,0.32-4.28,0.57c-0.58,0.1-1.15,0.22-1.72,0.34
		c-0.15,0.03-0.29,0.06-0.44,0.1c-1.88,0.43-3.72,0.96-5.54,1.62c-0.38,0.14-0.76,0.28-1.13,0.43c-0.36,0.14-0.72,0.29-1.08,0.44
		c-0.07,0.03-0.15,0.06-0.22,0.09c-0.43,0.18-0.85,0.37-1.27,0.57"/>
	<path class="st1" d="M127.62,202.71c-8.29-3.49-16.61-5.93-25.6-6.92c-0.74-0.08-1.48-0.15-2.22-0.21
		c-0.19-0.02-0.38-0.03-0.57-0.04c-0.32-0.02-0.63-0.04-0.95-0.06c-0.99-0.06-1.98-0.09-2.97-0.11c-0.68-0.01-1.35-0.01-2.03,0
		c-0.18,0-0.36,0.01-0.53,0.01c-1.92,0.05-3.84,0.18-5.75,0.41c-0.02,0-0.03,0-0.05,0.01c-1.34,0.16-2.67,0.36-4,0.62
		c-0.09,0.02-0.18,0.04-0.28,0.05c-1.17,0.23-2.33,0.49-3.49,0.8c-0.05,0.01-0.11,0.03-0.16,0.04c-1.88,0.5-3.72,1.1-5.53,1.8
		c-0.04,0.02-0.08,0.03-0.13,0.05c-1.22,0.48-2.42,1-3.6,1.57"/>
	<path class="st1" d="M73.28,198.73c-1.17,0.67-2.34,1.33-3.51,2c2.69,4.7,5.37,9.39,8.06,14.09c1.36,2.38,2.72,4.76,4.08,7.14"/>
	<polyline class="st1" points="131.11,200.72 127.62,202.71 127.41,235.53 	"/>
	<line class="st1" x1="310.65" y1="133.47" x2="302.49" y2="119.35"/>
	<line class="st1" x1="242.99" y1="89.22" x2="239.5" y2="91.24"/>
	<line class="st1" x1="239.5" y1="91.24" x2="239.5" y2="123.55"/>
	<line class="st1" x1="83.47" y1="158.83" x2="83.45" y2="158.84"/>
	<line class="st1" x1="82.95" y1="191.24" x2="84.95" y2="194.73"/>
	<path class="st1" d="M70.04,225.62c-1.17,0.67-2.34,1.33-3.51,2"/>
	<line class="st1" x1="66.53" y1="227.61" x2="86.21" y2="262.02"/>
	<line class="st1" x1="140.8" y1="97.77" x2="134.22" y2="86.36"/>
	<polyline class="st1" points="83.14,159.02 90.23,171.42 90.6,172.07 	"/>
</g>
<g id="Layer_3">
</g>
</svg>
