<svg xmlns="http://www.w3.org/2000/svg" viewBox="0 0 282.66 233.95"><defs><style>.cls-1,.cls-2{fill:none;stroke:#000;stroke-linecap:round;stroke-linejoin:round;}.cls-1{stroke-width:0.75px;}.cls-2{stroke-width:0.25px;}</style></defs><g id="Wide"><path class="cls-1" d="M101,120.66a80.63,80.63,0,0,1,8.14,3" transform="translate(-4 -35.72)"/><path class="cls-1" d="M163.49,38.1a93.79,93.79,0,0,0-12.64.91" transform="translate(-4 -35.72)"/><line class="cls-1" x1="173.15" y1="40.64" x2="170.42" y2="42.22"/><path class="cls-1" d="M166.41,74.89q4.08,1.33,8,3" transform="translate(-4 -35.72)"/><path class="cls-1" d="M177.15,51c-12-5.56-23.83-9.14-37.28-9.48h-.55" transform="translate(-4 -35.72)"/><path class="cls-1" d="M188.08,48.12c-11.51-5.29-22.82-8.7-35.67-9.08L152,39a61.77,61.77,0,0,0-14.54,1.32l-1.08.25" transform="translate(-4 -35.72)"/><path class="cls-1" d="M199,46.67c-11.48-5.22-22.69-8.5-35.51-8.57" transform="translate(-4 -35.72)"/><path class="cls-1" d="M209.92,46.81c-11.55-5.18-22.72-8.28-35.63-7.81" transform="translate(-4 -35.72)"/><path class="cls-1" d="M220.85,48.83a80.18,80.18,0,0,0-22.78-6.48" transform="translate(-4 -35.72)"/><path class="cls-1" d="M231.77,53.22a79.4,79.4,0,0,0-10.92-3.73" transform="translate(-4 -35.72)"/><line class="cls-1" x1="162.41" y1="43.22" x2="162.41" y2="17.99"/><line class="cls-1" x1="218.4" y1="58.04" x2="215.23" y2="52.54"/><path class="cls-1" d="M166.41,53.72c-25.13-14.51-60-25.42-88.83-8.8" transform="translate(-4 -35.72)"/><line class="cls-1" x1="159.68" y1="44.8" x2="162.41" y2="43.22"/><path class="cls-1" d="M144.79,71.62a118.81,118.81,0,0,1,18.89,8.9" transform="translate(-4 -35.72)"/><line class="cls-1" x1="1.66" y1="162.22" x2="1.7" y2="162.24"/><line class="cls-1" x1="42.81" y1="157.66" x2="39.99" y2="152.91"/><path class="cls-1" d="M90,123.81c-15.73-6.87-34.91-10.32-51.64-2.13" transform="translate(-4 -35.72)"/><line class="cls-1" x1="1.71" y1="162.19" x2="1.66" y2="162.22"/><path class="cls-1" d="M101,109.24c-17.19-7.68-38.31-11.68-56.68-2.59" transform="translate(-4 -35.72)"/><line class="cls-1" x1="0.38" y1="148.86" x2="0.52" y2="148.94"/><path class="cls-1" d="M180.85,75.58c.88-.45,1.78-.87,2.7-1.24" transform="translate(-4 -35.72)"/><line class="cls-1" x1="0.54" y1="148.77" x2="0.38" y2="148.86"/><path class="cls-1" d="M162.42,108.35c1.81-12.42,7-25.44,18.43-32.77" transform="translate(-4 -35.72)"/><line class="cls-1" x1="107.98" y1="60.83" x2="107.82" y2="86.33"/><path class="cls-1" d="M112,96.56C93.67,88.25,71,83.82,51.4,93.6" transform="translate(-4 -35.72)"/><line class="cls-1" x1="160.19" y1="64.19" x2="175.93" y2="73.27"/><line class="cls-1" x1="199.1" y1="74.04" x2="180.72" y2="63.43"/><path class="cls-1" d="M122.94,85.47C103.78,76.69,80,71.93,59.43,82.23" transform="translate(-4 -35.72)"/><line class="cls-1" x1="118.94" y1="49.75" x2="118.78" y2="75.23"/><path class="cls-1" d="M219.23,88.26c7.29-3,13.54-2.3,20.73-.07" transform="translate(-4 -35.72)"/><path class="cls-1" d="M133.88,75.8c-19.75-9.12-44.3-14.11-65.57-3.46" transform="translate(-4 -35.72)"/><line class="cls-1" x1="238.69" y1="50.89" x2="235.96" y2="52.47"/><line class="cls-1" x1="199.1" y1="74.04" x2="201.83" y2="72.46"/><path class="cls-1" d="M205.83,108.19c1.51-6.86,3.86-12.39,9.29-17.24" transform="translate(-4 -35.72)"/><path class="cls-1" d="M144.82,67.43C124.71,58.11,99.66,53,78,63.84" transform="translate(-4 -35.72)"/><path class="cls-1" d="M74.85,46.5C61,54.51,51.64,67.38,45.92,81.86" transform="translate(-4 -35.72)"/><line class="cls-1" x1="238.69" y1="25.21" x2="238.69" y2="50.89"/><path class="cls-1" d="M198.28,80.54c9.73-4.94,21.15-3.77,30.76-.2" transform="translate(-4 -35.72)"/><path class="cls-1" d="M242.69,60.93a64.09,64.09,0,0,0-10.92-3.27" transform="translate(-4 -35.72)"/><line class="cls-1" x1="227.77" y1="43.04" x2="225.04" y2="44.61"/><path class="cls-1" d="M144.26,110.47c1.51-11.69,5.73-24,14.6-32.61" transform="translate(-4 -35.72)"/><path class="cls-1" d="M177.15,72c2.79.89,5.51,1.9,8.2,3.06" transform="translate(-4 -35.72)"/><line class="cls-1" x1="40.05" y1="233.58" x2="41.98" y2="232.46"/><line class="cls-1" x1="41.98" y1="232.46" x2="63.83" y2="219.85"/><path class="cls-1" d="M78.51,53.2c-36.34,21.34-56,59.63-60.45,99.84s6,81.65,26,116.26" transform="translate(-4 -35.72)"/><line class="cls-1" x1="175.93" y1="73.27" x2="178.66" y2="71.7"/><path class="cls-1" d="M67.83,255.57a159.21,159.21,0,0,1-21-62.19" transform="translate(-4 -35.72)"/><path class="cls-1" d="M182.66,107.42c1.75-10.28,6.29-20.8,15.64-26.9" transform="translate(-4 -35.72)"/><line class="cls-1" x1="227.77" y1="17.5" x2="227.77" y2="43.04"/><line class="cls-1" x1="198.81" y1="47.48" x2="196.65" y2="43.74"/><line class="cls-1" x1="155.69" y1="74.2" x2="141.86" y2="66.22"/><path class="cls-1" d="M199,71.69c1,0,1.95.09,2.93.18" transform="translate(-4 -35.72)"/><path class="cls-1" d="M188.08,72.85a35.76,35.76,0,0,1,4.1-.8" transform="translate(-4 -35.72)"/><line class="cls-1" x1="155.69" y1="74.2" x2="158.42" y2="72.62"/><line class="cls-1" x1="216.47" y1="59.16" x2="218.4" y2="58.04"/><line class="cls-1" x1="223.35" y1="64.76" x2="216.1" y2="52.21"/><path class="cls-1" d="M208.69,73a64.69,64.69,0,0,1,9.43,2.92" transform="translate(-4 -35.72)"/><line class="cls-1" x1="216.85" y1="38.57" x2="214.12" y2="40.15"/><line class="cls-1" x1="216.85" y1="13.11" x2="216.85" y2="38.57"/><path class="cls-1" d="M202.81,83.21a145.73,145.73,0,0,1,17.66,11.67" transform="translate(-4 -35.72)"/><path class="cls-1" d="M227.35,100.48a163.16,163.16,0,0,1,35.16,42.69" transform="translate(-4 -35.72)"/><line class="cls-1" x1="137.52" y1="76.33" x2="125.23" y2="69.23"/><line class="cls-1" x1="260.44" y1="106.34" x2="258.51" y2="107.45"/><path class="cls-1" d="M286.29,129.45a198.27,198.27,0,0,0-43.6-52.72" transform="translate(-4 -35.72)"/><path class="cls-1" d="M163.33,38.1a127.81,127.81,0,0,0-41.17-.63" transform="translate(-4 -35.72)"/><line class="cls-1" x1="282.29" y1="93.72" x2="260.44" y2="106.34"/><path class="cls-1" d="M17.05,170.6c-7.11,8.21-9.88,17-11.35,27.36" transform="translate(-4 -35.72)"/><line class="cls-1" x1="16.44" y1="170.75" x2="1.7" y2="162.24"/><path class="cls-1" d="M44,188.63c7.43-3.14,13.79-2.53,21.16-.26" transform="translate(-4 -35.72)"/><path class="cls-1" d="M199,71a76.15,76.15,0,0,1,8.19,2.83" transform="translate(-4 -35.72)"/><line class="cls-1" x1="61.15" y1="152.65" x2="63.88" y2="151.1"/><line class="cls-1" x1="205.92" y1="36.51" x2="203.19" y2="38.09"/><path class="cls-1" d="M68,161c-11.29-4.54-24.92-6.33-36.67-.83" transform="translate(-4 -35.72)"/><line class="cls-1" x1="64.04" y1="125.32" x2="63.88" y2="151.1"/><path class="cls-1" d="M18.36,150.52C9.3,160.74,6.09,171.64,4.52,184.67" transform="translate(-4 -35.72)"/><line class="cls-1" x1="4.23" y1="151.09" x2="0.52" y2="148.94"/><path class="cls-1" d="M68,165.67A53.24,53.24,0,0,1,76.16,168" transform="translate(-4 -35.72)"/><path class="cls-1" d="M79.05,140.77c-13.86-5.83-30.53-8.6-45.15-1.55" transform="translate(-4 -35.72)"/><line class="cls-1" x1="72.16" y1="132.23" x2="74.89" y2="130.67"/><line class="cls-1" x1="75.05" y1="105.04" x2="74.89" y2="130.67"/><path class="cls-1" d="M21.23,134.48c-10,11.61-13.43,23.91-15,38.54" transform="translate(-4 -35.72)"/><line class="cls-1" x1="2.68" y1="137.58" x2="2.2" y2="137.3"/><path class="cls-1" d="M79,148.31a64.31,64.31,0,0,1,8.14,2.62" transform="translate(-4 -35.72)"/><line class="cls-1" x1="137.52" y1="76.33" x2="140.26" y2="74.75"/><line class="cls-1" x1="205.92" y1="11.08" x2="205.92" y2="36.51"/><line class="cls-1" x1="83.15" y1="115.2" x2="85.88" y2="113.65"/><line class="cls-1" x1="121" y1="79.4" x2="116.26" y2="76.66"/><path class="cls-1" d="M188.08,70.68a85.15,85.15,0,0,1,8.19,3" transform="translate(-4 -35.72)"/><line class="cls-1" x1="86.04" y1="88.09" x2="85.88" y2="113.65"/><path class="cls-1" d="M24.75,122c-6.56,8.3-10.2,17.18-12.62,27.32" transform="translate(-4 -35.72)"/><path class="cls-1" d="M90,133.5a75.38,75.38,0,0,1,8.15,2.81" transform="translate(-4 -35.72)"/><line class="cls-1" x1="195" y1="36.35" x2="192.27" y2="37.93"/><line class="cls-1" x1="121" y1="79.4" x2="123.73" y2="77.82"/><path class="cls-1" d="M127.73,113.55a80.18,80.18,0,0,1,2.14-11.2" transform="translate(-4 -35.72)"/><line class="cls-1" x1="94.13" y1="100.59" x2="96.86" y2="99.04"/><line class="cls-1" x1="97.02" y1="73.52" x2="96.86" y2="99.04"/><path class="cls-1" d="M27.24,115a70.54,70.54,0,0,0-6,12" transform="translate(-4 -35.72)"/><line class="cls-1" x1="73.58" y1="9.2" x2="70.85" y2="10.77"/><line class="cls-1" x1="195" y1="10.95" x2="195" y2="36.35"/><path class="cls-1" d="M159.32,38.21a58.47,58.47,0,0,0-6.85.83" transform="translate(-4 -35.72)"/><line class="cls-1" x1="107.85" y1="82.13" x2="108.59" y2="81.7"/><line class="cls-1" x1="184.08" y1="37.79" x2="181.35" y2="39.37"/><line class="cls-1" x1="105.09" y1="87.88" x2="107.82" y2="86.33"/><path class="cls-1" d="M111.9,109.47c2.77.88,5.48,1.89,8.15,3" transform="translate(-4 -35.72)"/><line class="cls-1" x1="116.05" y1="76.78" x2="118.78" y2="75.23"/><path class="cls-1" d="M112.59,117.42q.43-3.69,1.15-7.34" transform="translate(-4 -35.72)"/><line class="cls-1" x1="184.08" y1="12.4" x2="184.08" y2="37.79"/><line class="cls-1" x1="173.15" y1="15.26" x2="173.15" y2="40.64"/><path class="cls-1" d="M133.78,91.33c2.77.92,5.48,2,8.15,3.12" transform="translate(-4 -35.72)"/><line class="cls-1" x1="129.88" y1="40.08" x2="129.72" y2="65.55"/><line class="cls-1" x1="126.99" y1="67.1" x2="129.72" y2="65.55"/><path class="cls-1" d="M122.85,99.74c2.76.9,5.47,1.92,8.14,3.08" transform="translate(-4 -35.72)"/><line class="cls-1" x1="140.82" y1="31.71" x2="140.66" y2="57.17"/><line class="cls-1" x1="137.93" y1="58.73" x2="140.66" y2="57.17"/></g><g id="Medium"><line class="cls-2" x1="140.82" y1="31.71" x2="138.09" y2="33.26"/><line class="cls-2" x1="73.98" y1="28.12" x2="71.23" y2="29.67"/><line class="cls-2" x1="61.57" y1="38.18" x2="64.33" y2="43.02"/><line class="cls-2" x1="64.31" y1="36.62" x2="61.57" y2="38.18"/><line class="cls-2" x1="129.88" y1="40.08" x2="127.15" y2="41.63"/><line class="cls-2" x1="71.23" y1="29.67" x2="73.2" y2="33.11"/><line class="cls-2" x1="138.09" y1="33.26" x2="137.93" y2="58.73"/><line class="cls-2" x1="52.69" y1="48.06" x2="56.33" y2="54.43"/><path class="cls-2" d="M174.42,52.56a100.3,100.3,0,0,0-28.56-8.75" transform="translate(-4 -35.72)"/><line class="cls-2" x1="170.42" y1="16.84" x2="173.15" y2="15.26"/><line class="cls-2" x1="170.42" y1="16.84" x2="170.42" y2="42.22"/><line class="cls-2" x1="118.94" y1="49.75" x2="116.21" y2="51.3"/><line class="cls-2" x1="55.43" y1="46.5" x2="52.69" y2="48.06"/><line class="cls-2" x1="107.98" y1="60.83" x2="105.25" y2="62.39"/><path class="cls-2" d="M185.35,49.7c-15.32-7-29.58-10.91-46.84-8.47" transform="translate(-4 -35.72)"/><line class="cls-2" x1="181.35" y1="13.97" x2="184.08" y2="12.4"/><line class="cls-2" x1="47.4" y1="57.87" x2="44.66" y2="59.43"/><line class="cls-2" x1="181.35" y1="13.97" x2="181.35" y2="39.37"/><line class="cls-2" x1="44.66" y1="59.43" x2="49.3" y2="67.55"/><line class="cls-2" x1="105.25" y1="62.39" x2="105.09" y2="87.88"/><line class="cls-2" x1="97.02" y1="73.52" x2="94.29" y2="75.07"/><path class="cls-2" d="M196.27,48.25c-11.69-5.32-23.08-8.63-36.15-8.57" transform="translate(-4 -35.72)"/><line class="cls-2" x1="192.27" y1="12.52" x2="195" y2="10.95"/><path class="cls-2" d="M44.34,106.65l-2.74,1.56" transform="translate(-4 -35.72)"/><line class="cls-2" x1="94.29" y1="75.07" x2="94.13" y2="100.59"/><path class="cls-2" d="M125,115.12a78.06,78.06,0,0,1,2.83-13.6" transform="translate(-4 -35.72)"/><line class="cls-2" x1="86.04" y1="88.09" x2="83.31" y2="89.64"/><path class="cls-2" d="M38.4,121.68l-2.74,1.56" transform="translate(-4 -35.72)"/><line class="cls-2" x1="192.27" y1="12.52" x2="192.27" y2="37.93"/><line class="cls-2" x1="31.66" y1="87.52" x2="37.45" y2="97.65"/><path class="cls-2" d="M207.19,48.38a90.48,90.48,0,0,0-21.7-6.81" transform="translate(-4 -35.72)"/><line class="cls-2" x1="203.19" y1="12.66" x2="205.92" y2="11.08"/><line class="cls-2" x1="83.31" y1="89.64" x2="83.15" y2="115.2"/><line class="cls-2" x1="64.04" y1="125.32" x2="61.31" y2="126.88"/><line class="cls-2" x1="61.31" y1="126.88" x2="61.15" y2="152.65"/><path class="cls-2" d="M229.28,99.36a162.84,162.84,0,0,1,35.16,42.7" transform="translate(-4 -35.72)"/><line class="cls-2" x1="203.19" y1="12.66" x2="203.19" y2="38.09"/><path class="cls-2" d="M204.74,82.09A148.13,148.13,0,0,1,222.4,93.76" transform="translate(-4 -35.72)"/><line class="cls-2" x1="218.29" y1="51.54" x2="225.28" y2="63.64"/><line class="cls-2" x1="225.28" y1="63.64" x2="223.35" y2="64.76"/><path class="cls-2" d="M218.12,50.4c-2.69-1.17-5.41-2.22-8.2-3.14" transform="translate(-4 -35.72)"/><line class="cls-2" x1="214.12" y1="14.68" x2="216.85" y2="13.11"/><path class="cls-2" d="M185.48,75c4.12,1.6,8.13,3.39,12.07,5.39" transform="translate(-4 -35.72)"/><path class="cls-2" d="M187.41,73.9c4.12,1.6,8.13,3.39,12.07,5.38" transform="translate(-4 -35.72)"/><line class="cls-2" x1="198.79" y1="42.98" x2="200.74" y2="46.37"/><line class="cls-2" x1="200.74" y1="46.37" x2="198.81" y2="47.48"/><line class="cls-2" x1="214.12" y1="14.68" x2="214.12" y2="40.15"/><line class="cls-2" x1="193.55" y1="44.68" x2="195.48" y2="43.56"/><line class="cls-2" x1="195.48" y1="43.56" x2="192.21" y2="37.91"/><path class="cls-2" d="M229,54.8a82.54,82.54,0,0,0-8.19-3" transform="translate(-4 -35.72)"/><line class="cls-2" x1="225.04" y1="19.08" x2="227.77" y2="17.5"/><path class="cls-2" d="M81.48,51.48c-36.77,21.08-56.8,59.43-61.42,99.85S25.9,233.41,46,268.19" transform="translate(-4 -35.72)"/><path class="cls-2" d="M141.52,112.05c1.63-12.57,6.4-25.88,16.72-34.51" transform="translate(-4 -35.72)"/><line class="cls-2" x1="225.04" y1="19.08" x2="225.04" y2="44.61"/><path class="cls-2" d="M179.93,109c1.92-11.3,7.24-22.83,18.35-28.46" transform="translate(-4 -35.72)"/><path class="cls-2" d="M163.68,55.29c-25.13-14.5-60.05-25.41-88.83-8.79" transform="translate(-4 -35.72)"/><path class="cls-2" d="M142.09,69C122,59.66,96.93,54.53,75.23,65.4" transform="translate(-4 -35.72)"/><line class="cls-2" x1="127.15" y1="41.63" x2="126.99" y2="67.1"/><path class="cls-2" d="M131.15,77.35c-19.75-9.12-44.31-14.1-65.58-3.45" transform="translate(-4 -35.72)"/><path class="cls-2" d="M203.1,109.76c1.77-8,4.49-14.15,11.63-19.08" transform="translate(-4 -35.72)"/><line class="cls-2" x1="116.21" y1="51.3" x2="116.05" y2="76.78"/><path class="cls-2" d="M240,62.51a65.74,65.74,0,0,0-8.19-2.66" transform="translate(-4 -35.72)"/><line class="cls-2" x1="235.96" y1="26.78" x2="238.69" y2="25.21"/><path class="cls-2" d="M120.21,87c-19.16-8.78-42.92-13.54-63.52-3.24" transform="translate(-4 -35.72)"/><line class="cls-2" x1="235.96" y1="26.78" x2="235.96" y2="52.47"/><path class="cls-2" d="M109.25,98.11c-18.32-8.31-40.94-12.74-60.59-3" transform="translate(-4 -35.72)"/><path class="cls-2" d="M159.69,109.92c1.95-13.45,7.94-27.52,21.16-34.34" transform="translate(-4 -35.72)"/><path class="cls-2" d="M98.29,110.79C81.09,103.11,60,99.11,41.6,108.21" transform="translate(-4 -35.72)"/><path class="cls-2" d="M87.31,125.36C71.57,118.49,52.4,115,35.66,123.24" transform="translate(-4 -35.72)"/><path class="cls-2" d="M65.31,162.6a60.06,60.06,0,0,0-14.8-3.89c-1-.12-2-.21-3-.27l-.69,0c-.65,0-1.31-.05-2-.05h-.28c-.76,0-1.51,0-2.27.07l-.6,0-.81.07c-1.12.1-2.23.25-3.34.45-.45.08-.9.16-1.35.26l-.34.08a33.92,33.92,0,0,0-4.32,1.26l-.89.33-.84.35-.17.07c-.34.14-.67.29-1,.45" transform="translate(-4 -35.72)"/><path class="cls-2" d="M76.32,142.32a70.83,70.83,0,0,0-20-5.4c-.57-.06-1.15-.12-1.73-.16l-.45,0-.74,0c-.77-.05-1.54-.08-2.32-.09h-2c-1.5,0-3,.14-4.48.32h0q-1.57.2-3.12.48l-.22,0c-.91.17-1.82.38-2.72.62l-.13,0a40.93,40.93,0,0,0-4.31,1.41l-.1,0c-.95.37-1.89.78-2.81,1.22" transform="translate(-4 -35.72)"/><path class="cls-2" d="M33.9,139.22l-2.74,1.55q3.14,5.5,6.29,11l3.18,5.58" transform="translate(-4 -35.72)"/><polyline class="cls-2" points="75.05 105.04 72.32 106.6 72.16 132.23"/><line class="cls-2" x1="215.23" y1="52.54" x2="208.86" y2="41.51"/><line class="cls-2" x1="162.41" y1="17.99" x2="159.68" y2="19.57"/><line class="cls-2" x1="159.68" y1="19.57" x2="159.68" y2="44.8"/><line class="cls-2" x1="37.86" y1="72.34" x2="37.84" y2="72.35"/><line class="cls-2" x1="37.45" y1="97.65" x2="39.01" y2="100.37"/><path class="cls-2" d="M31.37,160.21l-2.74,1.56" transform="translate(-4 -35.72)"/><line class="cls-2" x1="24.63" y1="126.04" x2="39.99" y2="152.91"/><line class="cls-2" x1="82.62" y1="24.66" x2="77.48" y2="15.76"/><polyline class="cls-2" points="37.59 72.49 43.13 82.17 43.43 82.68"/></g></svg>