<?xml version="1.0" encoding="utf-8"?>
<!-- Generator: Adobe Illustrator 25.1.0, SVG Export Plug-In . SVG Version: 6.00 Build 0)  -->
<svg version="1.1" xmlns="http://www.w3.org/2000/svg" xmlns:xlink="http://www.w3.org/1999/xlink" x="0px" y="0px"
	 viewBox="0 0 432 432" style="enable-background:new 0 0 432 432;" xml:space="preserve">
<style type="text/css">
	.st0{fill:none;stroke:#000000;stroke-width:0.75;stroke-linecap:round;stroke-linejoin:round;}
	.st1{fill:none;stroke:#000000;stroke-width:0.25;stroke-linecap:round;stroke-linejoin:round;}
</style>
<g id="Wide">
	<path class="st0" d="M202.55,121.02c4.91,2.36,9.82,4.69,14.56,7.41c4.75,2.73,8.88,6.28,13.4,9.33c2.27,1.53,4.61,2.88,7.11,4.01
		c2.48,1.12,5.06,1.99,7.52,3.17c4.95,2.37,9.41,5.45,13.95,8.46"/>
	<path class="st0" d="M280.04,169.89c3.16,0.85,7.45,3.66,9.63,6.04"/>
	<path class="st0" d="M259.08,153.4c1.92,0.08,4.71,2.14,5.59,3.75"/>
	<path class="st0" d="M264.67,157.15c2.23,1.52,4.46,3.05,6.67,4.6"/>
	<path class="st0" d="M303.56,184.58c4.42,2.76,8.84,5.52,13.26,8.28"/>
	<path class="st0" d="M321.95,193.9c14.18,10.84,28.84,19.87,45.61,26.36"/>
	<line class="st0" x1="207.47" y1="92.24" x2="206.63" y2="92.65"/>
	<line class="st0" x1="325.3" y1="147.44" x2="325.22" y2="147.57"/>
	<line class="st0" x1="287.58" y1="122.33" x2="287.44" y2="122.45"/>
	<line class="st0" x1="216.87" y1="81.71" x2="216.3" y2="81.99"/>
	<path class="st0" d="M367.55,220.26c1.76,0.52,2.14,3.11,2.18,4.5c0.06,1.77,0.01,3.54,0.02,5.3"/>
	<path class="st0" d="M289.35,175.71c1.52,0.95,3.03,1.89,4.54,2.84"/>
	<path class="st0" d="M390.92,200.64c1.67,0.77,3.34,1.52,5.03,2.25"/>
	<path class="st0" d="M275.52,167.07c1.5,0.94,3.01,1.88,4.51,2.82"/>
	<line class="st0" x1="207.11" y1="81.3" x2="210.84" y2="79.31"/>
	<path class="st0" d="M210.84,79.31c1.83,0.89,3.65,1.78,5.47,2.68"/>
	<line class="st0" x1="206.94" y1="92.49" x2="207.11" y2="81.3"/>
	<line class="st0" x1="197.7" y1="92.21" x2="201.43" y2="90.22"/>
	<path class="st0" d="M201.43,90.22c1.74,0.8,3.47,1.61,5.2,2.43"/>
	<line class="st0" x1="197.47" y1="107.68" x2="197.7" y2="92.21"/>
	<line class="st0" x1="192.6" y1="110.28" x2="197.47" y2="107.68"/>
	<line class="st0" x1="192.53" y1="115.19" x2="192.6" y2="110.28"/>
	<path class="st0" d="M182.82,115.5c0.83-0.44,3.18-2,4.4-1.48"/>
	<line class="st0" x1="182.67" y1="125.9" x2="182.82" y2="115.5"/>
	<line class="st0" x1="153.56" y1="134.92" x2="182.67" y2="125.9"/>
	<path class="st0" d="M91.14,170.01c15.88-12.04,29.13-26.08,41.6-41.45"/>
	<path class="st0" d="M36,193.86c1.98-0.2,3.94-0.47,5.89-0.8"/>
	<path class="st0" d="M132.75,128.56c1.39,0.31,2.78,0.65,4.16,1"/>
	<line class="st0" x1="390.88" y1="184.63" x2="390.94" y2="205.83"/>
	<line class="st0" x1="205.49" y1="165.03" x2="205.22" y2="165.35"/>
	<line class="st0" x1="239.85" y1="196.86" x2="239.35" y2="197.51"/>
	<line class="st0" x1="262.63" y1="212.64" x2="262.1" y2="213.34"/>
	<path class="st0" d="M344.63,157.93c14.66,10.35,29.91,19.24,46.25,26.7"/>
	<path class="st0" d="M41.98,193.53c-0.34-1.71-0.45-3.33-0.12-5.07c0.28-1.49,1.1-3.62,3.06-3.51"/>
	<line class="st0" x1="381.58" y1="195.95" x2="381.62" y2="211.27"/>
	<line class="st0" x1="396" y1="221.3" x2="216.44" y2="352.69"/>
	<line class="st0" x1="395.95" y1="202.89" x2="396" y2="221.3"/>
	<line class="st0" x1="36" y1="193.86" x2="36" y2="220.65"/>
	<line class="st0" x1="36" y1="220.65" x2="216.44" y2="352.69"/>
	<path class="st0" d="M190.98,115.67c3.61-1.75,9.73,2.88,11.57,5.36"/>
	<path class="st0" d="M271.34,161.76c1.65,1.05,1.77,3.98,1.69,5.51"/>
	<path class="st0" d="M273.03,167.26c0.86-0.5,1.54-0.79,2.5-0.19"/>
	<path class="st0" d="M293.89,178.54c2.99-0.4,8.42,3.65,9.67,6.04"/>
	<path class="st0" d="M316.82,192.86c1.24-0.17,2.23,0.23,3.3,0.72"/>
	<path class="st0" d="M320.12,193.58c0.71-0.21,1.23-0.14,1.83,0.32"/>
	<line class="st0" x1="334.86" y1="169.52" x2="335.33" y2="169.25"/>
	<line class="st0" x1="344.63" y1="157.93" x2="344.26" y2="158.15"/>
	<path class="st0" d="M136.9,129.56c0.74-0.85,1.48-1.71,2.21-2.57"/>
	<path class="st0" d="M44.92,184.95c16.74-0.4,32.29-6.4,46.22-14.94"/>
	<line class="st0" x1="266.68" y1="211.06" x2="265.77" y2="212.23"/>
	<path class="st0" d="M139.11,127c1.48-1.73,4.12-0.16,5.39,0.88c1.67,1.35,2.79,2.72,3.21,4.92"/>
	<path class="st0" d="M335.33,169.25c14.51,10.7,29.62,19.65,46.25,26.7"/>
	<path class="st0" d="M312.94,237.76c0.01,2.39-0.07,4.78,0.02,7.17c0.09,2.5,1.14,5.81,4.03,4.12"/>
	<path class="st0" d="M266.68,211.06c12.05,12.73,27.63,24.53,46.25,26.7"/>
	<path class="st0" d="M340.08,156.61c0.76-0.5,3.68,1.25,4.17,1.53"/>
	<path class="st0" d="M330.94,168.27c0.78-0.49,3.39,0.96,3.91,1.25"/>
	<path class="st0" d="M207.47,92.24c1.05-0.44,4.22,1.36,4.92,1.78c0.96,0.57,3.5,2.23,4.04,3.4"/>
	<path class="st0" d="M262.63,212.64c0.76-1.02,2.18-0.79,3.15-0.41"/>
	<line class="st0" x1="325.22" y1="147.57" x2="340.08" y2="156.61"/>
	<path class="st0" d="M216.87,81.71c1.75-0.62,8.35,3.76,9.05,5.14"/>
	<line class="st0" x1="315.99" y1="159.14" x2="330.88" y2="168.33"/>
	<path class="st0" d="M147.71,132.8c3.6,1.23,12.2,4.43,15.53,6.39c7.18,4.23,6.34,5.99,12.54,11.12c2.21,1.83,4.49,3.25,7.29,4.07
		c2.7,0.8,5.52,0.74,8.2,1.71c5.54,2.01,9.55,5.76,13.95,9.26"/>
	<line class="st0" x1="247.36" y1="203.08" x2="262.1" y2="213.34"/>
	<path class="st0" d="M317.4,142.8c0.81-0.52,3.82,1.37,4.33,1.67c0.5,0.3,3.62,2.03,3.57,2.96"/>
	<path class="st0" d="M308.2,154.25c0.9-0.54,3.88,1.28,4.47,1.63c0.69,0.42,1.36,0.88,1.99,1.39c0.31,0.26,0.61,0.52,0.89,0.82
		c0.16,0.17,0.7,0.76,0.45,1.04"/>
	<path class="st0" d="M239.85,196.86c1.41-1.88,3.98-0.05,5.18,1.07c1.18,1.1,2.73,3.3,2.34,5.16"/>
	<line class="st0" x1="312.03" y1="139.54" x2="317.4" y2="142.8"/>
	<path class="st0" d="M216.43,97.41c4.96,2.47,9.93,4.93,14.76,7.67c4.85,2.75,9.14,6.27,13.79,9.29c4.7,3.05,9.88,5.01,14.83,7.49
		c4.99,2.5,9.57,5.58,14.22,8.6"/>
	<line class="st0" x1="302.76" y1="150.99" x2="308.14" y2="154.3"/>
	<path class="st0" d="M225.92,86.86c4.93,2.54,9.86,5.07,14.68,7.8c4.84,2.74,9.23,6.13,13.91,9.09c4.72,2.98,9.83,5.11,14.75,7.66
		c4.94,2.55,9.58,5.57,14.26,8.54"/>
	<line class="st0" x1="234.13" y1="193.88" x2="239.35" y2="197.51"/>
	<path class="st0" d="M205.49,165.03c1.35-1.48,4.7,1.86,3.72,3.55"/>
	<path class="st0" d="M303.11,134.1c2.53,0.92,7,3.48,8.93,5.43"/>
	<path class="st0" d="M293.81,145.47c2.66,0.81,7.06,3.43,8.95,5.52"/>
	<path class="st0" d="M225.17,187.65c3.7-0.93,7.64,3.51,8.96,6.23"/>
	<line class="st0" x1="298.38" y1="131.22" x2="303.11" y2="134.1"/>
	<line class="st0" x1="289.07" y1="142.54" x2="293.81" y2="145.47"/>
	<path class="st0" d="M274.06,130.43c0.46-0.22,2.02,0.68,2.31,0.87c0.36,0.22,0.7,0.45,1.02,0.73c0.16,0.14,0.31,0.28,0.45,0.43
		c0.15,0.16,0.47,0.38,0.14,0.53"/>
	<path class="st0" d="M187.22,114.02c1.26,0.54,2.51,1.09,3.76,1.65"/>
	<path class="st0" d="M283.53,119.95c0.74-0.34,3.87,1.68,4.05,2.38"/>
	<line class="st0" x1="220.43" y1="184.35" x2="225.17" y2="187.65"/>
	<path class="st0" d="M209.21,168.58c2.54,2.1,5.04,4.25,7.51,6.44"/>
	<path class="st0" d="M294.86,127.29c-0.15,0.47-0.41,0.86,0,1.34c0.32,0.38,0.69,0.68,1.08,0.98c0.77,0.6,1.59,1.12,2.43,1.61"/>
	<path class="st0" d="M285.42,138.03c-0.27,1.6-0.16,1.67,1.04,2.7c0.81,0.69,1.69,1.28,2.61,1.81"/>
	<path class="st0" d="M216.72,175.02c-0.08,1.79-0.53,3.5,0.21,5.34c0.73,1.82,1.8,3.02,3.5,3.99"/>
	<path class="st0" d="M287.44,122.45c2.48,1.6,4.96,3.21,7.42,4.84"/>
	<path class="st0" d="M277.92,133.01c2.51,1.66,5.01,3.33,7.5,5.03"/>
</g>
<g id="Layer_3">
</g>
<g id="Medium">
	<path class="st1" d="M274.2,134.85c2.51,1.68,5.01,3.38,7.5,5.1"/>
	<path class="st1" d="M283.68,124.27c2.5,1.63,4.98,3.27,7.45,4.94"/>
	<path class="st1" d="M273.75,150.44c2.55,1.66,5.08,3.34,7.6,5.04"/>
	<path class="st1" d="M119.88,238.46c0.01,2.86-0.26,5.71,0.15,8.58c0.33,2.31,1.58,6.04,3.9,7.38"/>
	<path class="st1" d="M268.98,152.92c2.51,1.67,5.01,3.36,7.5,5.07"/>
	<path class="st1" d="M266.48,173.46c0.15,1.8-0.08,1.93,1.32,3.27c0.9,0.86,1.89,1.56,2.96,2.18"/>
	<path class="st1" d="M266.71,163.09c0,1.77-0.25,1.95,1.11,3.31c0.88,0.88,1.85,1.58,2.92,2.2"/>
	<path class="st1" d="M276.48,157.99c0,1.72-0.07,1.77,1.25,2.94c0.86,0.76,1.79,1.39,2.77,1.96"/>
	<path class="st1" d="M281.36,155.49c0,0.54-0.17,1.05,0.2,1.58c0.32,0.45,0.72,0.8,1.14,1.15c0.84,0.69,1.74,1.29,2.68,1.83"/>
	<path class="st1" d="M281.69,139.95c-0.25,1.67-0.31,1.71,0.97,2.87c0.83,0.74,1.73,1.35,2.68,1.91"/>
	<path class="st1" d="M259.2,157.73c2.52,1.74,5.02,3.5,7.51,5.28"/>
	<path class="st1" d="M291.14,129.21c-0.13,0.48-0.45,0.9-0.07,1.43c0.3,0.42,0.68,0.74,1.07,1.06c0.79,0.64,1.63,1.19,2.51,1.7"/>
	<path class="st1" d="M258.81,168.16c2.57,1.75,5.13,3.51,7.68,5.3"/>
	<line class="st1" x1="123.93" y1="254.42" x2="128.71" y2="258.23"/>
	<path class="st1" d="M112.27,230.09c2.61,2.73,5.14,5.52,7.61,8.37"/>
	<line class="st1" x1="270.76" y1="178.9" x2="275.55" y2="181.9"/>
	<line class="st1" x1="270.74" y1="168.6" x2="275.51" y2="171.61"/>
	<line class="st1" x1="280.51" y1="162.89" x2="285.28" y2="165.84"/>
	<path class="st1" d="M279.8,121.75c0.42-0.26,1.96,0.66,2.24,0.83c0.35,0.21,1.7,1.04,1.81,1.56"/>
	<line class="st1" x1="285.35" y1="144.72" x2="290.09" y2="147.67"/>
	<path class="st1" d="M270.29,132.25c0.55-0.55,2.01,0.58,2.39,0.82c0.37,0.23,0.72,0.48,1.04,0.77c0.31,0.29,1.18,0.82,0.47,1"/>
	<line class="st1" x1="294.65" y1="133.4" x2="299.38" y2="136.3"/>
	<path class="st1" d="M269.85,147.85c0.9-0.41,3.73,1.65,4.02,2.42"/>
	<path class="st1" d="M128.71,258.23c1.97-2.09,4.36-0.58,5.87,1.15c1.58,1.81,2.46,3.8,3.13,6.05"/>
	<path class="st1" d="M264.93,150.24c0.23-0.32,0.97,0.1,1.19,0.19c0.39,0.17,0.75,0.36,1.11,0.58c0.31,0.19,1.82,1.14,1.77,1.7"/>
	<path class="st1" d="M275.55,181.9c2.85,0.6,7.19,3.52,9.04,5.66"/>
	<path class="st1" d="M275.51,171.61c2.89,0.54,7.21,3.45,9,5.68"/>
	<path class="st1" d="M285.28,165.84c2.75,0.74,7.1,3.48,9,5.58"/>
	<path class="st1" d="M290.15,162.97c2.68,0.83,7.05,3.51,9,5.53"/>
	<path class="st1" d="M290.09,147.67c2.72,0.74,7.1,3.4,8.95,5.56"/>
	<path class="st1" d="M255.15,154.98c0.15-0.28,0.36-0.16,0.58-0.12c0.21,0.04,0.41,0.11,0.6,0.19c0.4,0.16,0.77,0.35,1.13,0.58
		c0.73,0.47,1.49,0.76,1.75,1.77"/>
	<path class="st1" d="M299.38,136.3c2.59,0.86,7.03,3.44,8.93,5.47"/>
	<path class="st1" d="M254.98,165.37c1.03-0.12,1.61,0.47,2.34,0.94c0.36,0.23,0.69,0.5,1,0.8c0.15,0.15,0.3,0.3,0.42,0.48
		c0.13,0.19,0.37,0.39,0.07,0.57"/>
	<line class="st1" x1="137.71" y1="265.43" x2="143.12" y2="269.76"/>
	<path class="st1" d="M108.31,226.08c0.23-2.33,1.85-2.61,3.07-0.65c0.95,1.52,1.3,2.87,0.88,4.65"/>
	<line class="st1" x1="284.59" y1="187.55" x2="289.87" y2="190.86"/>
	<line class="st1" x1="284.51" y1="177.29" x2="289.92" y2="180.7"/>
	<line class="st1" x1="294.28" y1="171.42" x2="299.69" y2="174.77"/>
	<line class="st1" x1="299.16" y1="168.49" x2="304.57" y2="171.81"/>
	<line class="st1" x1="299.04" y1="153.22" x2="304.41" y2="156.56"/>
	<path class="st1" d="M222.19,88.68c4.95,2.51,9.9,5,14.73,7.73c4.85,2.74,9.17,6.21,13.84,9.2c4.71,3.01,9.86,5.05,14.79,7.56
		c4.97,2.52,9.58,5.57,14.24,8.57"/>
	<line class="st1" x1="308.31" y1="141.78" x2="313.67" y2="145.06"/>
	<path class="st1" d="M212.7,99.24c4.98,2.44,9.96,4.86,14.8,7.6c4.86,2.75,9.09,6.34,13.72,9.39c2.33,1.53,4.73,2.88,7.25,4.05
		c2.52,1.16,5.12,2.11,7.62,3.34c5.01,2.47,9.57,5.59,14.21,8.64"/>
	<path class="st1" d="M143.12,269.76c0.31-4.07,3-5.55,5.57-2.09c1.96,2.64,2.58,5.17,2.33,8.41"/>
	<path class="st1" d="M212.24,114.84c4.95,2.49,9.9,4.96,14.72,7.71c4.84,2.75,9.17,6.21,13.83,9.21c4.7,3.03,9.85,5.04,14.79,7.54
		c4.97,2.51,9.57,5.58,14.22,8.58"/>
	<path class="st1" d="M290.28,190.71c1.07-0.38,3.77,1.26,4.47,1.72c0.68,0.45,1.33,0.94,1.93,1.5c0.32,0.3,1.47,1.36,1.28,1.99"/>
	<path class="st1" d="M289.92,180.7c0.37-0.94,1.82-0.13,2.38,0.09c0.8,0.32,1.54,0.73,2.26,1.2c0.72,0.47,1.39,0.98,2.02,1.57
		c0.35,0.34,1.51,1.44,1.25,2.12"/>
	<path class="st1" d="M299.69,174.77c0.31-0.6,0.75-0.19,1.17-0.08c0.4,0.11,0.78,0.25,1.16,0.42c0.76,0.33,1.48,0.72,2.18,1.16
		c0.7,0.44,1.37,0.91,2.01,1.45c0.35,0.3,1.74,1.25,1.38,1.94"/>
	<path class="st1" d="M304.57,171.81c0.44-0.69,1.84,0.25,2.26,0.44c0.73,0.33,1.43,0.71,2.11,1.12c0.6,0.37,3.39,2.16,3.56,3.1"/>
	<path class="st1" d="M304.41,156.56c0.45-0.6,1.94,0.16,2.35,0.34c0.77,0.32,1.49,0.71,2.19,1.14c0.71,0.43,1.38,0.9,2.01,1.44
		c0.31,0.27,0.61,0.55,0.88,0.87c0.28,0.33,0.82,0.56,0.41,1.09"/>
	<path class="st1" d="M207.37,117.24c4.97,2.45,9.95,4.87,14.78,7.62c4.84,2.76,9.11,6.31,13.74,9.35c2.33,1.53,4.72,2.89,7.24,4.06
		c2.51,1.17,5.11,2.12,7.6,3.36c5,2.47,9.56,5.59,14.2,8.62"/>
	<path class="st1" d="M313.67,145.06c0.43-0.35,1.94,0.35,2.27,0.49c0.73,0.32,1.43,0.69,2.11,1.09c0.54,0.32,3.57,2.08,3.53,3.06"
		/>
	<path class="st1" d="M197.59,122.03c5.02,2.36,10.05,4.68,14.89,7.43c4.87,2.77,8.97,6.51,13.56,9.62
		c2.31,1.57,4.69,2.93,7.26,4.06c2.54,1.11,5.19,1.92,7.7,3.12c5.06,2.41,9.56,5.61,14.16,8.72"/>
	<line class="st1" x1="151.02" y1="276.08" x2="166.02" y2="288.06"/>
	<path class="st1" d="M197.29,132.52c5,2.39,10,4.74,14.82,7.49c4.84,2.76,9.02,6.4,13.61,9.49c2.31,1.55,4.69,2.92,7.23,4.07
		c2.52,1.14,5.15,1.99,7.65,3.2c5.02,2.43,9.54,5.59,14.15,8.66"/>
	<line class="st1" x1="297.95" y1="195.91" x2="312.85" y2="205.23"/>
	<line class="st1" x1="297.81" y1="185.68" x2="312.8" y2="195.13"/>
	<line class="st1" x1="307.59" y1="179.66" x2="322.57" y2="188.94"/>
	<line class="st1" x1="312.46" y1="176.66" x2="327.45" y2="185.86"/>
	<line class="st1" x1="312.26" y1="161.44" x2="327.15" y2="170.69"/>
	<path class="st1" d="M50.76,194.04c4.16,0.52,12.99,2.15,16.67,4.86c4.96,3.66,7.17,9.15,11.09,13.46
		c2.09,2.29,3.98,4.08,7.38,4.33c1.56,0.12,2.88-0.45,4.29-0.84c1.45-0.4,2.82-0.46,4.3-0.17c3.14,0.62,5.21,2.42,7.44,4.41
		c2.18,1.94,4.31,3.94,6.39,5.99"/>
	<line class="st1" x1="321.5" y1="149.86" x2="336.36" y2="158.97"/>
	<path class="st1" d="M213.05,83.69c0.1-0.39,1.03-0.14,1.26-0.08c0.44,0.12,0.86,0.28,1.28,0.46c0.84,0.36,1.64,0.77,2.42,1.23
		c0.91,0.53,3.67,2.26,4.19,3.38"/>
	<path class="st1" d="M166.02,288.06c0.19-2.47,1.37-5.49,4.18-3.87"/>
	<path class="st1" d="M213.24,84.24c-0.12-0.15-0.18-0.3-0.2-0.49"/>
	<path class="st1" d="M313.24,205.08c0.74-0.3,2.48,0.52,3.03,0.8"/>
	<path class="st1" d="M312.8,195.13c0.32-0.81,1.62-0.23,2.12-0.06c0.73,0.25,1.4,0.59,2.07,0.97"/>
	<path class="st1" d="M322.57,188.94c0.38-0.72,1.71,0.05,2.15,0.22c0.71,0.28,1.38,0.63,2.04,1.01"/>
	<path class="st1" d="M327.45,185.86c0.35-0.56,1.57,0.13,1.93,0.27c0.63,0.25,1.23,0.55,1.83,0.88"/>
	<path class="st1" d="M327.15,170.69c0.43-0.56,1.85,0.1,2.25,0.26c0.74,0.29,1.43,0.64,2.12,1.04"/>
	<path class="st1" d="M203.79,94.98c-0.31-0.5-0.31-1,0.37-1.02c0.51-0.01,0.96,0.13,1.43,0.29c0.94,0.32,1.81,0.75,2.66,1.23
		c1.09,0.62,3.87,2.41,4.44,3.75"/>
	<path class="st1" d="M336.36,158.97c0.91-0.74,3.82,1.21,4.43,1.56"/>
	<path class="st1" d="M203.19,109.78c0.16-0.36,1.04-0.1,1.27-0.03c0.43,0.12,0.85,0.29,1.26,0.47c0.83,0.36,1.61,0.79,2.39,1.25
		c1.56,0.93,3.15,1.63,4.14,3.38"/>
	<line class="st1" x1="170.2" y1="284.2" x2="170.19" y2="281.12"/>
	<path class="st1" d="M170.19,281.12c9.38,13.73,25.65,33.17,46.25,26.7"/>
	<path class="st1" d="M216.44,307.83c40.45-6.26,74.13-41.19,96.49-70.06"/>
	<path class="st1" d="M198.29,112.26c0.08-0.47,0.93-0.3,1.22-0.23c0.45,0.1,0.87,0.26,1.3,0.43c0.85,0.35,1.65,0.78,2.43,1.25
		c0.78,0.47,1.53,0.98,2.25,1.55c0.72,0.58,1.43,1.1,1.88,1.97"/>
	<path class="st1" d="M188.52,117.32c-0.16-0.72,0.42-0.74,0.98-0.7c0.49,0.03,0.93,0.16,1.39,0.32c0.91,0.32,1.74,0.76,2.56,1.25
		c1.2,0.72,3.52,2.4,4.14,3.84"/>
	<path class="st1" d="M317.02,205.61c14.36,11.03,29.19,20.22,46.25,26.7"/>
	<line class="st1" x1="363.27" y1="232.31" x2="363.24" y2="222.01"/>
	<path class="st1" d="M316.99,195.31c14.26,11.27,29.02,20.43,46.25,26.7"/>
	<line class="st1" x1="369.75" y1="230.07" x2="373.05" y2="228.14"/>
	<line class="st1" x1="373.05" y1="228.14" x2="373.02" y2="216.3"/>
	<path class="st1" d="M326.77,189.59c14.47,10.78,29.48,19.84,46.25,26.7"/>
	<line class="st1" x1="373.02" y1="216.3" x2="377.89" y2="213.45"/>
	<path class="st1" d="M331.64,186.75c14.58,10.54,29.69,19.55,46.25,26.7"/>
	<line class="st1" x1="377.89" y1="213.45" x2="377.85" y2="198.13"/>
	<path class="st1" d="M331.6,171.43c14.42,10.89,29.46,19.86,46.25,26.7"/>
	<line class="st1" x1="377.85" y1="198.13" x2="381.58" y2="195.95"/>
	<path class="st1" d="M188.61,127.18c2.24-0.6,7.8,3.62,8.67,5.35"/>
	<line class="st1" x1="216.44" y1="307.83" x2="216.44" y2="352.69"/>
	<line class="st1" x1="381.62" y1="211.27" x2="387.21" y2="208"/>
	<line class="st1" x1="387.21" y1="208" x2="387.16" y2="186.81"/>
	<path class="st1" d="M340.9,160.11c14.57,10.55,29.77,19.45,46.25,26.7"/>
	<line class="st1" x1="387.16" y1="186.81" x2="390.88" y2="184.63"/>
	<path class="st1" d="M44.92,184.96c3.77,0.22,5.49,6.4,5.83,9.08"/>
	<line class="st1" x1="326.77" y1="189.59" x2="326.77" y2="190.18"/>
	<line class="st1" x1="390.94" y1="205.83" x2="395.95" y2="202.89"/>
	<path class="st1" d="M36,193.86c1.99-0.2,3.98-0.31,5.98-0.33"/>
	<line class="st1" x1="317.02" y1="205.61" x2="316.27" y2="205.88"/>
	<line class="st1" x1="313.24" y1="205.08" x2="312.85" y2="205.23"/>
	<line class="st1" x1="316.99" y1="195.31" x2="316.99" y2="196.04"/>
	<path class="st1" d="M182.67,125.9c1.35,0.58,2.7,1.16,4.05,1.76"/>
	<line class="st1" x1="290.28" y1="190.71" x2="289.87" y2="190.86"/>
	<path class="st1" d="M182.82,115.5c1.9,0.79,3.79,1.59,5.67,2.41"/>
	<line class="st1" x1="254.98" y1="165.37" x2="254.74" y2="165.43"/>
	<line class="st1" x1="188.61" y1="127.18" x2="186.72" y2="127.66"/>
	<path class="st1" d="M192.6,110.28c1.9,0.85,3.79,1.72,5.68,2.6"/>
	<line class="st1" x1="188.52" y1="117.32" x2="188.49" y2="117.91"/>
	<path class="st1" d="M197.47,107.68c1.68,0.78,3.35,1.57,5.02,2.37"/>
	<line class="st1" x1="198.29" y1="112.26" x2="198.28" y2="112.88"/>
	<path class="st1" d="M197.7,92.21c2.04,0.91,4.07,1.84,6.09,2.78"/>
	<line class="st1" x1="203.19" y1="109.78" x2="202.49" y2="110.06"/>
	<line class="st1" x1="259.21" y1="157.39" x2="259.2" y2="157.73"/>
	<line class="st1" x1="268.99" y1="152.72" x2="268.98" y2="152.92"/>
	<path class="st1" d="M207.11,81.3c2.05,0.97,4.09,1.95,6.13,2.94"/>
	<line class="st1" x1="273.86" y1="150.28" x2="273.75" y2="150.44"/>
	<line class="st1" x1="312.49" y1="176.47" x2="312.46" y2="176.66"/>
	<line class="st1" x1="331.64" y1="186.75" x2="331.2" y2="187"/>
	<path class="st1" d="M381.61,205.49c1.86,0.87,3.72,1.71,5.6,2.52"/>
	<path class="st1" d="M363.24,222.01c0.78-0.45,3.13-2.1,4.31-1.75"/>
	<line class="st1" x1="331.6" y1="171.43" x2="331.52" y2="171.98"/>
	<line class="st1" x1="285.38" y1="160.04" x2="290.15" y2="162.97"/>
	<line class="st1" x1="316.99" y1="249.05" x2="363.27" y2="232.31"/>
</g>
</svg>
