<svg xmlns="http://www.w3.org/2000/svg" viewBox="0 0 224.15 269.52"><defs><style>.cls-1,.cls-2{fill:none;stroke:#000;stroke-linecap:round;stroke-linejoin:round;}.cls-2{stroke-width:0.5px;}</style></defs><g id="Wide"><polyline class="cls-1" points="129.27 41.83 129.27 25.9 85.28 0.5 15.7 40.67 15.7 170.66"/><polyline class="cls-1" points="167.66 226.92 223.65 194.6 223.65 180.82 158.88 143.43"/><line class="cls-1" x1="167.66" y1="226.92" x2="79.68" y2="176.13"/><line class="cls-1" x1="98.48" y1="54.76" x2="98.48" y2="65.84"/><line class="cls-1" x1="79.68" y1="184.52" x2="79.68" y2="65.61"/><line class="cls-1" x1="79.68" y1="65.61" x2="98.48" y2="54.76"/><polyline class="cls-1" points="122.47 37.9 136.07 45.75 136.07 72.3"/><polyline class="cls-1" points="125.27 66.07 158.86 85.47 158.89 171.11"/><polyline class="cls-1" points="99.68 103.93 122.08 116.86 122.08 141.68"/><polyline class="cls-1" points="15.7 153.12 0.5 161.89 0.5 184.06 147.67 269.02 223.65 225.15 223.65 202.99 216.38 198.79"/></g><g id="Medium"><polyline class="cls-2" points="79.68 162.35 167.66 213.15 223.65 180.82"/><line class="cls-2" x1="99.69" y1="128.75" x2="121.18" y2="116.34"/><polyline class="cls-2" points="0.5 161.89 147.67 246.86 147.67 269.02"/><line class="cls-2" x1="125.27" y1="66.07" x2="112.07" y2="73.69"/><line class="cls-2" x1="112.07" y1="59.61" x2="136.07" y2="45.75"/><polyline class="cls-2" points="98.48 51.76 112.07 59.6 112.07 73.69 98.48 65.84"/><line class="cls-2" x1="98.48" y1="51.76" x2="122.47" y2="37.9"/><line class="cls-2" x1="59.69" y1="66.07" x2="129.27" y2="25.9"/><polyline class="cls-2" points="15.7 40.67 59.69 66.07 59.69 196.06"/><line class="cls-2" x1="147.67" y1="246.86" x2="223.65" y2="202.99"/><polyline class="cls-2" points="79.68 153.09 134.89 184.96 158.89 171.11"/><line class="cls-2" x1="134.89" y1="184.96" x2="134.87" y2="99.32"/><line class="cls-2" x1="134.87" y1="99.32" x2="158.86" y2="85.46"/><line class="cls-2" x1="134.87" y1="99.32" x2="79.68" y2="67.46"/><line class="cls-2" x1="98.48" y1="51.76" x2="98.48" y2="54.76"/><line class="cls-2" x1="79.68" y1="184.52" x2="59.69" y2="196.06"/><polyline class="cls-2" points="99.68 103.93 99.69 128.75 122.08 141.68"/><line class="cls-2" x1="167.66" y1="213.15" x2="167.66" y2="226.92"/></g></svg>