<?xml version="1.0" encoding="utf-8"?>
<!-- Generator: Adobe Illustrator 25.1.0, SVG Export Plug-In . SVG Version: 6.00 Build 0)  -->
<svg version="1.1" xmlns="http://www.w3.org/2000/svg" xmlns:xlink="http://www.w3.org/1999/xlink" x="0px" y="0px"
	 viewBox="0 0 432 432" style="enable-background:new 0 0 432 432;" xml:space="preserve">
<style type="text/css">
	.st0{fill:none;stroke:#000000;stroke-width:0.75;stroke-linecap:round;stroke-linejoin:round;}
	.st1{fill:none;stroke:#000000;stroke-width:0.25;stroke-linecap:round;stroke-linejoin:round;}
	.st2{display:none;}
</style>
<g id="Wide">
	<polyline class="st0" points="236.75,103.87 236.75,84.65 183.67,54 99.71,102.47 99.71,259.32 	"/>
	<polyline class="st0" points="283.07,327.2 350.63,288.2 350.63,271.58 272.47,226.46 	"/>
	<line class="st0" x1="283.07" y1="327.2" x2="176.91" y2="265.91"/>
	<line class="st0" x1="199.59" y1="119.47" x2="199.59" y2="132.84"/>
	<line class="st0" x1="176.91" y1="276.03" x2="176.91" y2="132.56"/>
	<line class="st0" x1="176.91" y1="132.56" x2="199.59" y2="119.47"/>
	<polyline class="st0" points="228.55,99.13 244.95,108.6 244.95,140.64 	"/>
	<polyline class="st0" points="231.92,133.12 272.45,156.52 272.48,259.86 	"/>
	<polyline class="st0" points="201.05,178.8 228.07,194.4 228.08,224.34 	"/>
	<polyline class="st0" points="99.71,238.15 81.37,248.73 81.37,275.48 258.95,378 350.63,325.07 350.63,298.32 341.86,293.26 	"/>
</g>
<g id="Medium">
	<polyline class="st1" points="176.91,249.29 283.07,310.58 350.63,271.58 	"/>
	<line class="st1" x1="201.06" y1="208.74" x2="226.98" y2="193.77"/>
	<polyline class="st1" points="81.37,248.73 258.95,351.25 258.95,378 	"/>
	<line class="st1" x1="231.92" y1="133.12" x2="216" y2="142.31"/>
	<line class="st1" x1="216" y1="125.32" x2="244.95" y2="108.6"/>
	<polyline class="st1" points="199.59,115.85 216,125.32 216,142.31 199.59,132.84 	"/>
	<line class="st1" x1="199.59" y1="115.85" x2="228.55" y2="99.13"/>
	<line class="st1" x1="152.79" y1="133.12" x2="236.75" y2="84.65"/>
	<polyline class="st1" points="99.71,102.47 152.79,133.12 152.79,289.96 	"/>
	<line class="st1" x1="258.95" y1="351.25" x2="350.63" y2="298.32"/>
	<polyline class="st1" points="176.91,238.11 243.53,276.57 272.48,259.86 	"/>
	<line class="st1" x1="243.53" y1="276.57" x2="243.5" y2="173.23"/>
	<line class="st1" x1="243.5" y1="173.23" x2="272.45" y2="156.52"/>
	<line class="st1" x1="243.5" y1="173.23" x2="176.91" y2="134.79"/>
	<line class="st1" x1="199.59" y1="115.85" x2="199.59" y2="119.47"/>
	<line class="st1" x1="176.91" y1="276.03" x2="152.79" y2="289.96"/>
	<polyline class="st1" points="201.05,178.8 201.06,208.74 228.08,224.34 	"/>
	<line class="st1" x1="283.07" y1="310.58" x2="283.07" y2="327.2"/>
</g>
<g id="Layer_3" class="st2">
</g>
</svg>
