<?xml version="1.0" encoding="utf-8"?>
<!-- Generator: Adobe Illustrator 25.1.0, SVG Export Plug-In . SVG Version: 6.00 Build 0)  -->
<svg version="1.1" xmlns="http://www.w3.org/2000/svg" xmlns:xlink="http://www.w3.org/1999/xlink" x="0px" y="0px"
	 viewBox="0 0 432 432" style="enable-background:new 0 0 432 432;" xml:space="preserve">
<style type="text/css">
	.st0{fill:none;stroke:#000000;stroke-width:0.75;stroke-linecap:round;stroke-linejoin:round;}
	.st1{fill:none;stroke:#000000;stroke-width:0.2;stroke-linecap:round;stroke-linejoin:round;}
</style>
<g id="Linework::Heavy">
	<line class="st0" x1="139.53" y1="230.5" x2="124.67" y2="234.39"/>
	<line class="st0" x1="161.66" y1="224.69" x2="146.8" y2="228.58"/>
	<line class="st0" x1="183.78" y1="218.88" x2="168.94" y2="222.77"/>
	<line class="st0" x1="205.91" y1="213.07" x2="191.05" y2="216.97"/>
	<line class="st0" x1="228.03" y1="207.26" x2="213.18" y2="211.16"/>
	<line class="st0" x1="250.16" y1="201.45" x2="235.31" y2="205.35"/>
	<line class="st0" x1="276.04" y1="194.66" x2="257.43" y2="199.54"/>
	<line class="st0" x1="258.51" y1="191.6" x2="270.84" y2="188.36"/>
	<line class="st0" x1="236.39" y1="197.41" x2="251.23" y2="193.51"/>
	<line class="st0" x1="214.27" y1="203.21" x2="229.12" y2="199.31"/>
	<line class="st0" x1="192.14" y1="209.02" x2="206.99" y2="205.12"/>
	<line class="st0" x1="170.01" y1="214.83" x2="184.86" y2="210.93"/>
	<line class="st0" x1="147.88" y1="220.64" x2="162.73" y2="216.74"/>
	<line class="st0" x1="125.76" y1="226.45" x2="140.61" y2="222.55"/>
	<line class="st0" x1="103.63" y1="232.26" x2="118.48" y2="228.36"/>
	<line class="st0" x1="81.5" y1="238.07" x2="96.35" y2="234.17"/>
	<line class="st0" x1="117.41" y1="236.3" x2="102.56" y2="240.2"/>
	<line class="st0" x1="95.27" y1="242.11" x2="80.43" y2="246.01"/>
	<line class="st0" x1="73.15" y1="247.92" x2="58.3" y2="251.82"/>
	<line class="st0" x1="40.98" y1="248.7" x2="65.43" y2="69.01"/>
	<line class="st0" x1="275.18" y1="196.88" x2="354.6" y2="277.75"/>
	<line class="st0" x1="35.95" y1="253.85" x2="37.05" y2="249.73"/>
	<line class="st0" x1="38.95" y1="256.9" x2="35.95" y2="253.85"/>
	<line class="st0" x1="141.78" y1="108.71" x2="136.62" y2="108.01"/>
	<line class="st0" x1="263.15" y1="174.01" x2="247.77" y2="158.36"/>
	<line class="st0" x1="134.89" y1="107.78" x2="108.51" y2="301.63"/>
	<line class="st0" x1="115.4" y1="302.56" x2="141.78" y2="108.71"/>
	<line class="st0" x1="122" y1="97.23" x2="116.84" y2="96.52"/>
	<line class="st0" x1="197.52" y1="169.47" x2="204.68" y2="176.76"/>
	<line class="st0" x1="115.11" y1="96.29" x2="88.73" y2="290.14"/>
	<line class="st0" x1="95.63" y1="291.08" x2="122" y2="97.23"/>
	<line class="st0" x1="277.52" y1="183.68" x2="65.53" y2="60.5"/>
	<line class="st0" x1="195.31" y1="185.73" x2="202.25" y2="181.72"/>
	<line class="st0" x1="278.95" y1="192.11" x2="374.36" y2="289.25"/>
	<line class="st0" x1="379.48" y1="283.84" x2="267.53" y2="169.86"/>
	<line class="st0" x1="262.56" y1="174.99" x2="265.8" y2="169.62"/>
	<line class="st0" x1="219.34" y1="165.87" x2="231.92" y2="178.67"/>
	<line class="st0" x1="256.82" y1="204.02" x2="295.35" y2="243.25"/>
	<line class="st0" x1="218.31" y1="173.43" x2="224.19" y2="179.4"/>
	<line class="st0" x1="255.79" y1="211.58" x2="275.6" y2="231.74"/>
	<line class="st0" x1="234.03" y1="371.5" x2="260.41" y2="177.65"/>
	<line class="st0" x1="259.82" y1="181.97" x2="270.83" y2="188.36"/>
	<line class="st0" x1="240.06" y1="170.49" x2="253.32" y2="178.19"/>
	<line class="st0" x1="220.28" y1="158.99" x2="233.55" y2="166.7"/>
	<line class="st0" x1="200.51" y1="147.5" x2="213.79" y2="155.22"/>
	<line class="st0" x1="180.73" y1="136.01" x2="194" y2="143.72"/>
	<line class="st0" x1="160.96" y1="124.53" x2="174.23" y2="132.23"/>
	<line class="st0" x1="141.19" y1="113.04" x2="154.47" y2="120.75"/>
	<line class="st0" x1="121.42" y1="101.55" x2="134.68" y2="109.26"/>
	<line class="st0" x1="101.64" y1="90.06" x2="114.91" y2="97.77"/>
	<line class="st0" x1="61.81" y1="66.91" x2="75.38" y2="74.8"/>
	<line class="st0" x1="65.53" y1="60.5" x2="61.82" y2="62.64"/>
	<line class="st0" x1="61.81" y1="66.91" x2="61.82" y2="62.64"/>
	<line class="st0" x1="253.52" y1="176.71" x2="227.14" y2="370.56"/>
	<line class="st0" x1="236.49" y1="196.72" x2="251.03" y2="188.32"/>
	<line class="st0" x1="260.41" y1="177.65" x2="255.25" y2="176.94"/>
	<line class="st0" x1="269.79" y1="200.01" x2="334.85" y2="266.25"/>
	<line class="st0" x1="241.77" y1="171.48" x2="252.71" y2="182.62"/>
	<line class="st0" x1="201.09" y1="143.18" x2="195.93" y2="142.48"/>
	<line class="st0" x1="214.26" y1="360.01" x2="240.64" y2="166.16"/>
	<line class="st0" x1="194.2" y1="142.24" x2="167.82" y2="336.09"/>
	<line class="st0" x1="174.71" y1="337.03" x2="201.09" y2="143.18"/>
	<line class="st0" x1="233.75" y1="165.22" x2="207.37" y2="359.07"/>
	<line class="st0" x1="240.64" y1="166.16" x2="235.48" y2="165.46"/>
	<line class="st0" x1="264.39" y1="203.11" x2="315.1" y2="254.75"/>
	<line class="st0" x1="239.11" y1="177.38" x2="243.69" y2="182.05"/>
	<line class="st0" x1="198.55" y1="161.91" x2="211.12" y2="174.71"/>
	<line class="st0" x1="220.87" y1="154.67" x2="215.7" y2="153.97"/>
	<line class="st0" x1="56.08" y1="268.1" x2="82.46" y2="74.25"/>
	<line class="st0" x1="213.97" y1="153.73" x2="187.59" y2="347.58"/>
	<line class="st0" x1="194.49" y1="348.52" x2="220.87" y2="154.67"/>
	<line class="st0" x1="181.32" y1="131.69" x2="176.16" y2="130.99"/>
	<line class="st0" x1="75.57" y1="73.31" x2="49.19" y2="267.16"/>
	<line class="st0" x1="174.43" y1="130.75" x2="148.05" y2="324.6"/>
	<line class="st0" x1="154.94" y1="325.54" x2="181.32" y2="131.69"/>
	<line class="st0" x1="82.46" y1="74.25" x2="77.3" y2="73.54"/>
	<line class="st0" x1="216.41" y1="187.45" x2="221.76" y2="184.36"/>
	<line class="st0" x1="194.29" y1="193.27" x2="209.82" y2="184.3"/>
	<line class="st0" x1="254.67" y1="165.36" x2="285.27" y2="147.69"/>
	<line class="st0" x1="237.51" y1="189.17" x2="241.27" y2="187"/>
	<line class="st0" x1="214.36" y1="202.54" x2="229.9" y2="193.57"/>
	<line class="st0" x1="75.85" y1="279.59" x2="102.23" y2="85.74"/>
	<line class="st0" x1="95.34" y1="84.8" x2="68.96" y2="278.65"/>
	<line class="st0" x1="215.38" y1="195" x2="230.92" y2="186.03"/>
	<line class="st0" x1="258.61" y1="190.89" x2="260.78" y2="189.65"/>
	<line class="st0" x1="102.23" y1="85.74" x2="97.07" y2="85.03"/>
	<line class="st0" x1="280.58" y1="193.76" x2="260.97" y2="205.09"/>
	<line class="st0" x1="170.11" y1="214.18" x2="185.64" y2="205.21"/>
	<line class="st0" x1="193.26" y1="200.82" x2="208.79" y2="191.85"/>
	<line class="st0" x1="257.74" y1="199.46" x2="259.24" y2="204.85"/>
	<line class="st0" x1="135.17" y1="314.05" x2="161.55" y2="120.2"/>
	<line class="st0" x1="154.66" y1="119.26" x2="128.28" y2="313.12"/>
	<line class="st0" x1="162.97" y1="125.69" x2="173.64" y2="136.55"/>
	<line class="st0" x1="179.81" y1="142.83" x2="192.39" y2="155.64"/>
	<line class="st0" x1="161.55" y1="120.2" x2="156.39" y2="119.5"/>
	<line class="st0" x1="175.03" y1="178.03" x2="189.08" y2="179.94"/>
	<line class="st0" x1="195.98" y1="180.87" x2="210.03" y2="182.78"/>
	<line class="st0" x1="182.68" y1="137.15" x2="193.41" y2="148.07"/>
	<line class="st0" x1="199.57" y1="154.35" x2="212.15" y2="167.15"/>
	<line class="st0" x1="216.91" y1="183.71" x2="230.97" y2="185.61"/>
	<line class="st0" x1="237.87" y1="186.55" x2="251.92" y2="188.45"/>
	<line class="st0" x1="202.38" y1="148.59" x2="213.18" y2="159.59"/>
	<line class="st0" x1="258.82" y1="189.38" x2="264.18" y2="190.11"/>
	<line class="st0" x1="175.73" y1="172.84" x2="189.79" y2="174.75"/>
	<line class="st0" x1="196.67" y1="175.68" x2="210.74" y2="177.58"/>
	<line class="st0" x1="217.62" y1="178.52" x2="231.68" y2="180.42"/>
	<line class="st0" x1="172.15" y1="199.1" x2="187.69" y2="190.13"/>
	<line class="st0" x1="238.57" y1="181.35" x2="252.63" y2="183.26"/>
	<line class="st0" x1="259.53" y1="184.19" x2="264.91" y2="184.92"/>
	<line class="st0" x1="276.81" y1="191.82" x2="280.15" y2="192.28"/>
	<line class="st0" x1="173.19" y1="191.55" x2="188.72" y2="182.58"/>
	<line class="st0" x1="280.15" y1="192.28" x2="280.86" y2="187.08"/>
	<line class="st0" x1="277.52" y1="186.63" x2="280.86" y2="187.08"/>
	<line class="st0" x1="373.7" y1="124.45" x2="375.43" y2="124.68"/>
	<line class="st0" x1="104.75" y1="224.11" x2="120.28" y2="215.14"/>
	<line class="st0" x1="127.9" y1="210.74" x2="143.43" y2="201.77"/>
	<line class="st0" x1="174.21" y1="184" x2="182.74" y2="179.08"/>
	<line class="st0" x1="103.72" y1="231.65" x2="119.26" y2="222.68"/>
	<line class="st0" x1="126.87" y1="218.29" x2="142.41" y2="209.32"/>
	<line class="st0" x1="288.37" y1="152.86" x2="287" y2="147.93"/>
	<line class="st0" x1="249.24" y1="204.91" x2="249.63" y2="205.31"/>
	<line class="st0" x1="243.84" y1="208.02" x2="248.6" y2="212.87"/>
	<line class="st0" x1="240.55" y1="159.61" x2="241.05" y2="159.32"/>
	<line class="st0" x1="299.73" y1="239.08" x2="297.08" y2="243.48"/>
	<line class="st0" x1="243.54" y1="162.28" x2="242.79" y2="159.55"/>
	<line class="st0" x1="125.85" y1="225.83" x2="141.39" y2="216.86"/>
	<line class="st0" x1="51.02" y1="253.73" x2="38.95" y2="256.9"/>
	<line class="st0" x1="59.39" y1="243.87" x2="74.23" y2="239.98"/>
	<line class="st0" x1="238.86" y1="210.9" x2="237.13" y2="210.66"/>
	<line class="st0" x1="172.54" y1="228.33" x2="170.81" y2="228.1"/>
	<line class="st0" x1="81.87" y1="78.57" x2="95.14" y2="86.28"/>
	<line class="st0" x1="329.49" y1="136.07" x2="331.22" y2="136.31"/>
	<line class="st0" x1="194.65" y1="222.52" x2="192.92" y2="222.29"/>
	<line class="st0" x1="128.32" y1="239.96" x2="126.59" y2="239.72"/>
	<line class="st0" x1="310.48" y1="147.04" x2="309.11" y2="142.12"/>
	<line class="st0" x1="351.59" y1="130.26" x2="353.33" y2="130.49"/>
	<line class="st0" x1="216.75" y1="216.71" x2="215.02" y2="216.47"/>
	<line class="st0" x1="332.59" y1="141.23" x2="331.22" y2="136.31"/>
	<line class="st0" x1="354.7" y1="135.42" x2="353.33" y2="130.49"/>
	<line class="st0" x1="106.21" y1="245.77" x2="104.48" y2="245.53"/>
	<line class="st0" x1="159.01" y1="138.88" x2="171.58" y2="151.68"/>
	<line class="st0" x1="157.98" y1="146.44" x2="170.55" y2="159.24"/>
	<line class="st0" x1="147.98" y1="220.01" x2="163.5" y2="211.04"/>
	<line class="st0" x1="160.04" y1="131.31" x2="172.61" y2="144.12"/>
	<line class="st0" x1="358.98" y1="273.59" x2="356.33" y2="277.98"/>
	<line class="st0" x1="150.43" y1="234.14" x2="148.7" y2="233.91"/>
	<line class="st0" x1="84.11" y1="251.58" x2="82.37" y2="251.34"/>
	<line class="st0" x1="62" y1="257.39" x2="60.27" y2="257.16"/>
	<line class="st0" x1="277.51" y1="186.63" x2="277.52" y2="183.68"/>
	<line class="st0" x1="81.02" y1="246.41" x2="80.31" y2="246.82"/>
	<line class="st0" x1="395.81" y1="118.64" x2="397.54" y2="118.87"/>
	<line class="st0" x1="399.31" y1="125.22" x2="287.25" y2="189.92"/>
	<line class="st0" x1="399.31" y1="125.22" x2="397.54" y2="118.87"/>
	<line class="st0" x1="72.7" y1="251.21" x2="62" y2="257.39"/>
	<line class="st0" x1="266.26" y1="158.67" x2="264.89" y2="153.74"/>
	<line class="st0" x1="376.8" y1="129.61" x2="375.43" y2="124.68"/>
	<line class="st0" x1="139.08" y1="233.74" x2="128.32" y2="239.96"/>
	<line class="st0" x1="227.59" y1="210.45" x2="216.75" y2="216.71"/>
	<line class="st0" x1="149" y1="212.46" x2="164.54" y2="203.49"/>
	<line class="st0" x1="116.96" y1="239.57" x2="106.21" y2="245.77"/>
	<line class="st0" x1="150.02" y1="204.92" x2="165.56" y2="195.95"/>
	<line class="st0" x1="94.83" y1="245.39" x2="84.11" y2="251.58"/>
	<line class="st0" x1="161.21" y1="227.92" x2="150.43" y2="234.14"/>
	<line class="st0" x1="81.59" y1="237.48" x2="97.13" y2="228.51"/>
	<line class="st0" x1="151.06" y1="197.37" x2="166.6" y2="188.4"/>
	<line class="st0" x1="130.01" y1="313.35" x2="135.17" y2="314.05"/>
	<line class="st0" x1="128.28" y1="313.12" x2="130.01" y2="313.35"/>
	<line class="st0" x1="156.39" y1="119.5" x2="154.66" y2="119.26"/>
	<line class="st0" x1="260.97" y1="205.09" x2="259.24" y2="204.85"/>
	<line class="st0" x1="70.69" y1="278.88" x2="75.85" y2="279.59"/>
	<line class="st0" x1="68.96" y1="278.65" x2="70.69" y2="278.88"/>
	<line class="st0" x1="97.07" y1="85.03" x2="95.34" y2="84.8"/>
	<line class="st0" x1="285.27" y1="147.69" x2="287" y2="147.93"/>
	<line class="st0" x1="277.5" y1="179.99" x2="373.7" y2="124.45"/>
	<line class="st0" x1="249.72" y1="204.63" x2="238.86" y2="210.9"/>
	<line class="st0" x1="260.22" y1="216.08" x2="257.57" y2="220.48"/>
	<line class="st0" x1="279.97" y1="227.59" x2="277.33" y2="231.98"/>
	<line class="st0" x1="235.63" y1="205.27" x2="237.13" y2="210.66"/>
	<line class="st0" x1="254.76" y1="219.14" x2="255.84" y2="220.24"/>
	<line class="st0" x1="50.92" y1="267.39" x2="56.08" y2="268.1"/>
	<line class="st0" x1="49.19" y1="267.16" x2="50.92" y2="267.39"/>
	<line class="st0" x1="77.3" y1="73.54" x2="75.57" y2="73.31"/>
	<line class="st0" x1="259.02" y1="169.8" x2="307.38" y2="141.88"/>
	<line class="st0" x1="255.84" y1="220.24" x2="257.57" y2="220.48"/>
	<line class="st0" x1="183.35" y1="222.09" x2="172.54" y2="228.33"/>
	<line class="st0" x1="209.1" y1="359.31" x2="214.26" y2="360.01"/>
	<line class="st0" x1="207.37" y1="359.07" x2="209.1" y2="359.31"/>
	<line class="st0" x1="235.48" y1="165.46" x2="233.75" y2="165.22"/>
	<line class="st0" x1="228.87" y1="370.79" x2="234.03" y2="371.5"/>
	<line class="st0" x1="227.14" y1="370.56" x2="228.87" y2="370.79"/>
	<line class="st0" x1="255.25" y1="176.94" x2="253.52" y2="176.71"/>
	<line class="st0" x1="169.3" y1="222.68" x2="170.81" y2="228.1"/>
	<line class="st0" x1="268.78" y1="171.12" x2="329.49" y2="136.07"/>
	<line class="st0" x1="205.47" y1="216.27" x2="194.65" y2="222.52"/>
	<line class="st0" x1="275.6" y1="231.74" x2="277.33" y2="231.98"/>
	<line class="st0" x1="191.41" y1="216.87" x2="192.92" y2="222.29"/>
	<line class="st0" x1="295.35" y1="243.25" x2="297.08" y2="243.48"/>
	<line class="st0" x1="125.08" y1="234.29" x2="126.59" y2="239.72"/>
	<line class="st0" x1="379.48" y1="283.84" x2="376.09" y2="289.48"/>
	<line class="st0" x1="267.53" y1="169.86" x2="265.8" y2="169.62"/>
	<line class="st0" x1="374.36" y1="289.25" x2="376.09" y2="289.48"/>
	<line class="st0" x1="273.14" y1="175.56" x2="351.59" y2="130.26"/>
	<line class="st0" x1="213.52" y1="211.07" x2="215.02" y2="216.47"/>
	<line class="st0" x1="241.05" y1="159.32" x2="242.79" y2="159.55"/>
	<line class="st0" x1="102.97" y1="240.09" x2="104.48" y2="245.53"/>
	<line class="st0" x1="147.19" y1="228.48" x2="148.7" y2="233.91"/>
	<line class="st0" x1="80.86" y1="245.9" x2="82.37" y2="251.34"/>
	<line class="st0" x1="261.47" y1="182.93" x2="263.2" y2="184.69"/>
	<line class="st0" x1="37.05" y1="249.73" x2="52.11" y2="245.78"/>
	<line class="st0" x1="281.85" y1="184.43" x2="395.81" y2="118.64"/>
	<line class="st0" x1="163.29" y1="173.8" x2="153.49" y2="179.45"/>
	<line class="st0" x1="131.63" y1="131.69" x2="119.06" y2="118.88"/>
	<line class="st0" x1="136.62" y1="146.64" x2="149.19" y2="159.44"/>
	<line class="st0" x1="117.88" y1="127.56" x2="130.45" y2="140.36"/>
	<line class="st0" x1="112.89" y1="112.61" x2="100.32" y2="99.81"/>
	<line class="st0" x1="178.78" y1="150.39" x2="191.35" y2="163.2"/>
	<line class="st0" x1="64.82" y1="73.54" x2="74.23" y2="83.13"/>
	<line class="st0" x1="129.15" y1="201.5" x2="144.7" y2="192.52"/>
	<line class="st0" x1="106" y1="214.86" x2="121.54" y2="205.89"/>
	<line class="st0" x1="122.73" y1="197.21" x2="107.18" y2="206.19"/>
	<line class="st0" x1="169.11" y1="169.85" x2="156.54" y2="157.04"/>
	<line class="st0" x1="145.87" y1="183.85" x2="130.34" y2="192.82"/>
	<line class="st0" x1="250.31" y1="160.92" x2="263.16" y2="153.51"/>
	<line class="st0" x1="339.23" y1="262.09" x2="336.58" y2="266.48"/>
	<line class="st0" x1="155.36" y1="165.72" x2="163.29" y2="173.8"/>
	<line class="st0" x1="94.15" y1="93.53" x2="81.58" y2="80.73"/>
	<line class="st0" x1="99.14" y1="108.48" x2="111.71" y2="121.29"/>
	<line class="st0" x1="80.4" y1="89.41" x2="92.97" y2="102.21"/>
	<line class="st0" x1="152.31" y1="188.13" x2="167.84" y2="179.16"/>
	<line class="st0" x1="82.85" y1="228.23" x2="98.38" y2="219.26"/>
	<line class="st0" x1="59.69" y1="241.6" x2="75.24" y2="232.63"/>
	<line class="st0" x1="123.57" y1="102.8" x2="134.1" y2="113.52"/>
	<line class="st0" x1="140.27" y1="119.8" x2="152.84" y2="132.6"/>
	<line class="st0" x1="103.88" y1="91.36" x2="114.34" y2="102"/>
	<line class="st0" x1="120.5" y1="108.28" x2="133.07" y2="121.08"/>
	<line class="st0" x1="139.24" y1="127.36" x2="151.82" y2="140.16"/>
	<line class="st0" x1="53.26" y1="237.32" x2="41.62" y2="244.04"/>
	<line class="st0" x1="76.41" y1="223.96" x2="60.87" y2="232.93"/>
	<line class="st0" x1="150.37" y1="150.76" x2="137.8" y2="137.96"/>
	<line class="st0" x1="143.27" y1="114.25" x2="153.87" y2="125.04"/>
	<line class="st0" x1="58.75" y1="251.7" x2="60.27" y2="257.16"/>
	<line class="st0" x1="99.56" y1="210.59" x2="84.02" y2="219.56"/>
	<line class="st0" x1="247.77" y1="158.36" x2="246.04" y2="158.12"/>
	<line class="st0" x1="354.6" y1="277.75" x2="356.33" y2="277.98"/>
	<line class="st0" x1="89.76" y1="66.35" x2="88.03" y2="66.12"/>
	<line class="st0" x1="36.87" y1="254.78" x2="36.16" y2="255.19"/>
	<line class="st0" x1="109.51" y1="77.85" x2="107.78" y2="77.62"/>
	<line class="st0" x1="62.53" y1="61.34" x2="63.09" y2="61.91"/>
	<line class="st0" x1="32.69" y1="254.72" x2="36.16" y2="255.19"/>
	<line class="st0" x1="59.07" y1="60.87" x2="32.69" y2="254.72"/>
	<line class="st0" x1="59.07" y1="60.87" x2="62.53" y2="61.34"/>
	<line class="st0" x1="105.14" y1="82.01" x2="89.76" y2="66.35"/>
	<line class="st0" x1="276.04" y1="194.66" x2="276.81" y2="191.82"/>
	<line class="st0" x1="208.27" y1="135.35" x2="206.54" y2="135.12"/>
	<line class="st0" x1="228.02" y1="146.85" x2="226.29" y2="146.62"/>
	<line class="st0" x1="110.24" y1="301.86" x2="115.4" y2="302.56"/>
	<line class="st0" x1="108.51" y1="301.63" x2="110.24" y2="301.86"/>
	<line class="st0" x1="136.62" y1="108.01" x2="134.89" y2="107.78"/>
	<line class="st0" x1="223.65" y1="151.01" x2="208.27" y2="135.35"/>
	<line class="st0" x1="90.46" y1="290.37" x2="95.63" y2="291.08"/>
	<line class="st0" x1="88.73" y1="290.14" x2="90.46" y2="290.37"/>
	<line class="st0" x1="116.84" y1="96.52" x2="115.11" y2="96.29"/>
	<line class="st0" x1="129.26" y1="89.35" x2="127.53" y2="89.12"/>
	<line class="st0" x1="84.7" y1="71.64" x2="88.03" y2="66.12"/>
	<line class="st0" x1="124.89" y1="93.51" x2="109.51" y2="77.85"/>
	<line class="st0" x1="188.52" y1="123.85" x2="186.79" y2="123.62"/>
	<line class="st0" x1="192.23" y1="208.36" x2="207.76" y2="199.39"/>
	<line class="st0" x1="168.77" y1="112.35" x2="167.03" y2="112.12"/>
	<line class="st0" x1="184.14" y1="128.01" x2="168.77" y2="112.35"/>
	<line class="st0" x1="149.01" y1="100.85" x2="147.28" y2="100.62"/>
	<line class="st0" x1="164.39" y1="116.51" x2="149.01" y2="100.85"/>
	<line class="st0" x1="319.47" y1="250.59" x2="316.83" y2="254.98"/>
	<line class="st0" x1="334.85" y1="266.25" x2="336.58" y2="266.48"/>
	<line class="st0" x1="144.64" y1="105.01" x2="129.26" y2="89.35"/>
	<line class="st0" x1="169.55" y1="336.33" x2="174.71" y2="337.03"/>
	<line class="st0" x1="167.82" y1="336.09" x2="169.55" y2="336.33"/>
	<line class="st0" x1="195.93" y1="142.48" x2="194.2" y2="142.24"/>
	<line class="st0" x1="315.1" y1="254.75" x2="316.83" y2="254.98"/>
	<line class="st0" x1="203.9" y1="139.52" x2="188.52" y2="123.85"/>
	<line class="st0" x1="189.33" y1="347.82" x2="194.49" y2="348.52"/>
	<line class="st0" x1="187.59" y1="347.58" x2="189.33" y2="347.82"/>
	<line class="st0" x1="215.7" y1="153.97" x2="213.97" y2="153.73"/>
	<line class="st0" x1="177.75" y1="157.95" x2="190.32" y2="170.76"/>
	<line class="st0" x1="104.47" y1="83.12" x2="107.78" y2="77.62"/>
	<line class="st0" x1="203.28" y1="140.53" x2="206.54" y2="135.12"/>
	<line class="st0" x1="171.13" y1="206.64" x2="186.66" y2="197.67"/>
	<line class="st0" x1="243.4" y1="162.51" x2="228.02" y2="146.85"/>
	<line class="st0" x1="223.04" y1="152.03" x2="226.29" y2="146.62"/>
	<line class="st0" x1="242.8" y1="163.5" x2="246.04" y2="158.12"/>
	<line class="st0" x1="176.72" y1="165.52" x2="185.17" y2="174.12"/>
	<line class="st0" x1="149.78" y1="324.84" x2="154.94" y2="325.54"/>
	<line class="st0" x1="148.05" y1="324.6" x2="149.78" y2="324.84"/>
	<line class="st0" x1="176.16" y1="130.99" x2="174.43" y2="130.75"/>
	<line class="st0" x1="124.23" y1="94.61" x2="127.53" y2="89.12"/>
	<line class="st0" x1="183.52" y1="129.06" x2="186.79" y2="123.62"/>
	<line class="st0" x1="163.76" y1="117.57" x2="167.03" y2="112.12"/>
	<line class="st0" x1="143.99" y1="106.09" x2="147.28" y2="100.62"/>
	<line class="st0" x1="222.07" y1="160.03" x2="232.95" y2="171.11"/>
	<line class="st0" x1="263.16" y1="153.51" x2="264.89" y2="153.74"/>
	<line class="st0" x1="307.38" y1="141.88" x2="309.11" y2="142.12"/>
</g>
<g id="Linework::Medium">
	<line class="st1" x1="60.3" y1="251.29" x2="62" y2="257.39"/>
	<line class="st1" x1="35.95" y1="253.85" x2="51.57" y2="249.75"/>
	<line class="st1" x1="166.75" y1="174.27" x2="168.29" y2="175.84"/>
	<line class="st1" x1="86.36" y1="72" x2="85" y2="71.81"/>
	<line class="st1" x1="86.36" y1="72" x2="89.76" y2="66.35"/>
	<line class="st1" x1="106.11" y1="83.5" x2="104.79" y2="83.32"/>
	<line class="st1" x1="106.11" y1="83.5" x2="109.51" y2="77.85"/>
	<line class="st1" x1="170.74" y1="157.9" x2="158.16" y2="145.1"/>
	<line class="st1" x1="171.77" y1="150.34" x2="159.19" y2="137.53"/>
	<line class="st1" x1="82.41" y1="245.49" x2="84.11" y2="251.58"/>
	<line class="st1" x1="264.89" y1="153.74" x2="251.09" y2="161.71"/>
	<line class="st1" x1="104.52" y1="239.68" x2="106.21" y2="245.77"/>
	<line class="st1" x1="204.87" y1="141" x2="203.81" y2="140.85"/>
	<line class="st1" x1="224.63" y1="152.5" x2="223.62" y2="152.36"/>
	<line class="st1" x1="224.63" y1="152.5" x2="228.02" y2="146.85"/>
	<line class="st1" x1="336.58" y1="266.48" x2="270.74" y2="199.45"/>
	<line class="st1" x1="163.32" y1="212.38" x2="149.98" y2="220.09"/>
	<line class="st1" x1="190.5" y1="169.42" x2="177.93" y2="156.61"/>
	<line class="st1" x1="209.64" y1="185.64" x2="194.1" y2="194.61"/>
	<line class="st1" x1="58.84" y1="247.84" x2="73.69" y2="243.94"/>
	<line class="st1" x1="375.43" y1="124.68" x2="278.27" y2="180.78"/>
	<line class="st1" x1="353.33" y1="130.49" x2="273.9" y2="176.35"/>
	<line class="st1" x1="65.18" y1="70.86" x2="74.6" y2="80.45"/>
	<line class="st1" x1="136.98" y1="143.96" x2="149.56" y2="156.76"/>
	<line class="st1" x1="118.24" y1="124.88" x2="130.82" y2="137.68"/>
	<line class="st1" x1="273.04" y1="191.6" x2="276.04" y2="194.66"/>
	<line class="st1" x1="62.53" y1="61.34" x2="62.4" y2="62.31"/>
	<line class="st1" x1="80.97" y1="242.03" x2="95.81" y2="238.13"/>
	<line class="st1" x1="125.86" y1="95" x2="124.6" y2="94.83"/>
	<line class="st1" x1="61.81" y1="66.66" x2="36.74" y2="250.9"/>
	<line class="st1" x1="245.35" y1="164.99" x2="244.38" y2="164"/>
	<line class="st1" x1="127.16" y1="96.31" x2="125.86" y2="95"/>
	<line class="st1" x1="192.96" y1="216.47" x2="194.65" y2="222.52"/>
	<line class="st1" x1="122.35" y1="199.9" x2="106.81" y2="208.87"/>
	<line class="st1" x1="87.76" y1="73.42" x2="86.36" y2="72"/>
	<line class="st1" x1="114.52" y1="100.66" x2="107.37" y2="93.39"/>
	<line class="st1" x1="133.26" y1="119.74" x2="120.68" y2="106.94"/>
	<line class="st1" x1="107.46" y1="84.86" x2="106.11" y2="83.5"/>
	<line class="st1" x1="134.29" y1="112.18" x2="127.07" y2="104.83"/>
	<line class="st1" x1="205.95" y1="142.1" x2="204.87" y2="141"/>
	<line class="st1" x1="103.1" y1="236.22" x2="117.94" y2="232.32"/>
	<line class="st1" x1="125.23" y1="230.41" x2="140.07" y2="226.51"/>
	<line class="st1" x1="225.65" y1="153.54" x2="224.63" y2="152.5"/>
	<line class="st1" x1="215.07" y1="210.66" x2="216.75" y2="216.71"/>
	<line class="st1" x1="172.79" y1="142.78" x2="160.22" y2="129.97"/>
	<line class="st1" x1="191.53" y1="161.85" x2="178.96" y2="149.05"/>
	<line class="st1" x1="237.18" y1="204.86" x2="238.86" y2="210.9"/>
	<line class="st1" x1="166.75" y1="174.27" x2="153.12" y2="182.13"/>
	<line class="st1" x1="61.82" y1="62.64" x2="81.6" y2="74.13"/>
	<line class="st1" x1="121.96" y1="97.58" x2="140.91" y2="108.6"/>
	<line class="st1" x1="191.6" y1="212.99" x2="206.44" y2="209.09"/>
	<line class="st1" x1="213.72" y1="207.18" x2="228.57" y2="203.28"/>
	<line class="st1" x1="356.33" y1="277.98" x2="276.14" y2="196.33"/>
	<line class="st1" x1="244.38" y1="164" x2="247.77" y2="158.36"/>
	<line class="st1" x1="125.86" y1="95" x2="129.26" y2="89.35"/>
	<line class="st1" x1="242.79" y1="159.55" x2="241.33" y2="160.39"/>
	<line class="st1" x1="264.13" y1="175.5" x2="263.23" y2="175.38"/>
	<line class="st1" x1="185.12" y1="129.5" x2="184.01" y2="129.35"/>
	<line class="st1" x1="165.37" y1="118" x2="164.21" y2="117.84"/>
	<line class="st1" x1="185.12" y1="129.5" x2="188.52" y2="123.85"/>
	<line class="st1" x1="36.29" y1="254.2" x2="36.16" y2="255.19"/>
	<line class="st1" x1="297.08" y1="243.48" x2="257.01" y2="202.68"/>
	<line class="st1" x1="145.62" y1="106.5" x2="144.42" y2="106.33"/>
	<line class="st1" x1="257.57" y1="220.48" x2="254.95" y2="217.8"/>
	<line class="st1" x1="248.78" y1="211.53" x2="244.8" y2="207.48"/>
	<line class="st1" x1="277.33" y1="231.98" x2="255.97" y2="210.24"/>
	<line class="st1" x1="165.37" y1="118" x2="168.77" y2="112.35"/>
	<line class="st1" x1="143.26" y1="203.11" x2="127.72" y2="212.08"/>
	<line class="st1" x1="184.48" y1="179.31" x2="174.02" y2="185.35"/>
	<line class="st1" x1="142.22" y1="210.66" x2="126.69" y2="219.63"/>
	<line class="st1" x1="141.2" y1="218.2" x2="127.89" y2="225.89"/>
	<line class="st1" x1="223.5" y1="184.59" x2="216.23" y2="188.79"/>
	<line class="st1" x1="233.13" y1="169.76" x2="225.56" y2="162.06"/>
	<line class="st1" x1="152" y1="138.82" x2="139.42" y2="126.02"/>
	<line class="st1" x1="153.03" y1="131.26" x2="140.45" y2="118.46"/>
	<line class="st1" x1="186.9" y1="174.35" x2="176.9" y2="164.17"/>
	<line class="st1" x1="207.58" y1="200.73" x2="194.14" y2="208.5"/>
	<line class="st1" x1="245.42" y1="182.28" x2="239.29" y2="176.04"/>
	<line class="st1" x1="99.5" y1="105.8" x2="112.08" y2="118.6"/>
	<line class="st1" x1="80.76" y1="86.72" x2="93.34" y2="99.53"/>
	<line class="st1" x1="155.72" y1="163.04" x2="166.75" y2="174.26"/>
	<line class="st1" x1="52.9" y1="240" x2="41.25" y2="246.72"/>
	<line class="st1" x1="76.05" y1="226.63" x2="60.51" y2="235.6"/>
	<line class="st1" x1="99.2" y1="213.27" x2="83.66" y2="222.24"/>
	<line class="st1" x1="186.48" y1="199.01" x2="170.95" y2="207.98"/>
	<line class="st1" x1="262.51" y1="189.88" x2="260.39" y2="191.1"/>
	<line class="st1" x1="154.05" y1="123.7" x2="146.77" y2="116.28"/>
	<line class="st1" x1="230.74" y1="187.36" x2="215.2" y2="196.33"/>
	<line class="st1" x1="229.71" y1="194.91" x2="216.22" y2="202.7"/>
	<line class="st1" x1="145.51" y1="186.53" x2="129.98" y2="195.5"/>
	<line class="st1" x1="102.19" y1="86.09" x2="121.14" y2="97.11"/>
	<line class="st1" x1="82.41" y1="74.6" x2="101.37" y2="85.62"/>
	<line class="st1" x1="96.94" y1="229.85" x2="83.73" y2="237.48"/>
	<line class="st1" x1="120.09" y1="216.48" x2="104.56" y2="225.45"/>
	<line class="st1" x1="166.41" y1="189.74" x2="150.87" y2="198.71"/>
	<line class="st1" x1="119.07" y1="224.03" x2="105.81" y2="231.68"/>
	<line class="st1" x1="165.38" y1="197.29" x2="149.85" y2="206.26"/>
	<line class="st1" x1="188.54" y1="183.92" x2="173" y2="192.89"/>
	<line class="st1" x1="265.05" y1="176.44" x2="264.13" y2="175.5"/>
	<line class="st1" x1="164.35" y1="204.84" x2="148.81" y2="213.81"/>
	<line class="st1" x1="187.51" y1="191.46" x2="171.98" y2="200.43"/>
	<line class="st1" x1="146.85" y1="107.76" x2="145.62" y2="106.5"/>
	<line class="st1" x1="186.25" y1="130.65" x2="185.12" y2="129.5"/>
	<line class="st1" x1="213.36" y1="158.25" x2="205.87" y2="150.62"/>
	<line class="st1" x1="166.55" y1="119.2" x2="165.37" y2="118"/>
	<line class="st1" x1="193.59" y1="146.73" x2="186.17" y2="139.17"/>
	<line class="st1" x1="212.33" y1="165.81" x2="199.76" y2="153.01"/>
	<line class="st1" x1="130.01" y1="313.35" x2="156.39" y2="119.5"/>
	<line class="st1" x1="173.82" y1="135.21" x2="166.47" y2="127.72"/>
	<line class="st1" x1="192.56" y1="154.29" x2="179.99" y2="141.49"/>
	<line class="st1" x1="211.3" y1="173.37" x2="198.73" y2="160.57"/>
	<line class="st1" x1="259.29" y1="199.06" x2="260.97" y2="205.09"/>
	<line class="st1" x1="185.45" y1="206.56" x2="172.05" y2="214.29"/>
	<line class="st1" x1="397.54" y1="118.87" x2="282.63" y2="185.22"/>
	<line class="st1" x1="208.62" y1="193.18" x2="193.07" y2="202.16"/>
	<line class="st1" x1="70.69" y1="278.88" x2="97.07" y2="85.03"/>
	<line class="st1" x1="309.11" y1="142.12" x2="259.79" y2="170.59"/>
	<line class="st1" x1="170.85" y1="222.27" x2="172.54" y2="228.33"/>
	<line class="st1" x1="148.74" y1="228.08" x2="150.43" y2="234.14"/>
	<line class="st1" x1="287" y1="147.93" x2="255.43" y2="166.15"/>
	<line class="st1" x1="243.01" y1="187.23" x2="237.34" y2="190.51"/>
	<line class="st1" x1="126.63" y1="233.88" x2="128.32" y2="239.96"/>
	<line class="st1" x1="166.75" y1="174.27" x2="163.29" y2="173.8"/>
	<line class="st1" x1="50.92" y1="267.39" x2="77.3" y2="73.54"/>
	<line class="st1" x1="149.78" y1="324.84" x2="176.16" y2="130.99"/>
	<line class="st1" x1="189.33" y1="347.82" x2="215.7" y2="153.97"/>
	<line class="st1" x1="145.62" y1="106.5" x2="149.01" y2="100.85"/>
	<line class="st1" x1="331.22" y1="136.31" x2="269.55" y2="171.91"/>
	<line class="st1" x1="316.83" y1="254.98" x2="265.34" y2="202.56"/>
	<line class="st1" x1="209.1" y1="359.31" x2="235.48" y2="165.46"/>
	<line class="st1" x1="204.87" y1="141" x2="208.27" y2="135.35"/>
	<line class="st1" x1="169.55" y1="336.33" x2="195.93" y2="142.48"/>
	<line class="st1" x1="252.9" y1="181.28" x2="245.26" y2="173.51"/>
	<line class="st1" x1="228.87" y1="370.79" x2="255.25" y2="176.94"/>
	<line class="st1" x1="251.84" y1="189.09" x2="238.31" y2="196.9"/>
	<line class="st1" x1="273.8" y1="188.79" x2="273.81" y2="185.82"/>
	<line class="st1" x1="225.92" y1="179.64" x2="218.5" y2="172.09"/>
	<line class="st1" x1="141.73" y1="109.07" x2="160.69" y2="120.09"/>
	<line class="st1" x1="161.5" y1="120.56" x2="180.46" y2="131.57"/>
	<line class="st1" x1="232.1" y1="177.33" x2="219.52" y2="164.52"/>
	<line class="st1" x1="181.27" y1="132.05" x2="200.23" y2="143.06"/>
	<line class="st1" x1="201.05" y1="143.54" x2="220" y2="154.55"/>
	<line class="st1" x1="220.82" y1="155.03" x2="239.77" y2="166.04"/>
	<line class="st1" x1="264.13" y1="175.5" x2="267.53" y2="169.86"/>
	<line class="st1" x1="240.59" y1="166.52" x2="259.54" y2="177.53"/>
	<line class="st1" x1="376.09" y1="289.48" x2="280.21" y2="191.87"/>
	<line class="st1" x1="260.36" y1="178" x2="273.81" y2="185.82"/>
	<line class="st1" x1="203.99" y1="181.95" x2="195.13" y2="187.07"/>
	<line class="st1" x1="273.81" y1="185.82" x2="277.52" y2="183.68"/>
	<line class="st1" x1="206.41" y1="177" x2="197.7" y2="168.13"/>
	<line class="st1" x1="90.46" y1="290.37" x2="116.84" y2="96.52"/>
	<line class="st1" x1="110.24" y1="301.86" x2="136.62" y2="108.01"/>
	<line class="st1" x1="147.35" y1="224.6" x2="162.2" y2="220.7"/>
	<line class="st1" x1="244.38" y1="164" x2="243.43" y2="163.87"/>
	<line class="st1" x1="169.48" y1="218.79" x2="184.32" y2="214.9"/>
	<line class="st1" x1="235.85" y1="201.37" x2="250.7" y2="197.47"/>
	<line class="st1" x1="257.98" y1="195.56" x2="273.04" y2="191.6"/>
	<line class="st1" x1="273.04" y1="191.6" x2="273.8" y2="188.79"/>
</g>
<g id="Layer_4">
</g>
</svg>
