<svg xmlns="http://www.w3.org/2000/svg" viewBox="0 0 257.21 229"><defs><style>.cls-1,.cls-2{fill:none;stroke:#000;stroke-linecap:round;stroke-linejoin:round;}.cls-1{stroke-width:0.75px;}.cls-2{stroke-width:0.25px;}</style></defs><g id="Wide_Lines" data-name="Wide Lines"><line class="cls-1" x1="164.15" y1="43.15" x2="164.15" y2="55.32"/><polyline class="cls-1" points="150.82 71.11 230.18 116.88 256.83 101.47 256.83 93.37 248.21 88.39"/><polyline class="cls-1" points="164.15 78.98 143.1 91.13 122.05 78.98 122.05 12.53 143.1 0.38 164.15 12.53 164.15 43.15 166.95 41.54 206.72 64.47"/><polyline class="cls-1" points="214.99 28.51 228.74 20.56 249.8 32.71 249.8 40.81 242.22 45.19"/><polyline class="cls-1" points="214.99 28.51 214.7 28.34 193.66 40.5 193.66 48.61 214.72 60.76 221.32 56.94"/><line class="cls-1" x1="206.72" y1="56.14" x2="206.72" y2="91.31"/><line class="cls-1" x1="106.1" y1="198.56" x2="116.21" y2="192.66"/><line class="cls-1" x1="96" y1="192.86" x2="106.1" y2="198.56"/><line class="cls-1" x1="49.51" y1="100.59" x2="45.3" y2="103.03"/><polyline class="cls-1" points="242.22 45.19 248.21 48.65 248.21 91.44"/><polyline class="cls-1" points="153.21 85.3 153.21 88.38 159.5 92.02 159.5 100.12 166.52 104.17 166.52 112.6 145.47 124.75 124.42 112.6 124.42 111.34"/><line class="cls-1" x1="130.62" y1="107.75" x2="75.2" y2="139.75"/><polyline class="cls-1" points="75.2 148.8 81.26 152.3 84.7 150.31"/><line class="cls-1" x1="91.37" y1="143.38" x2="91.37" y2="130.42"/><polygon class="cls-1" points="84.68 147.24 105.73 135.09 126.74 147.01 127.02 186.39 116.21 192.66 116.21 198.19 106.1 204.03 96 198.19 96 192.86 84.97 186.63 84.68 147.24"/><polyline class="cls-1" points="45.3 221.5 45.3 226.2 49.51 228.63 53.58 226.28"/><polygon class="cls-1" points="44.04 220.77 54.15 226.6 75.2 214.45 75.2 97.44 65.09 91.6 59.62 94.76 55.41 92.33 45.3 98.16 45.3 103.03 44.04 103.75 44.04 220.77"/><polyline class="cls-1" points="3.88 43.17 24.94 31.02 45.99 43.17 45.99 97.77"/><polyline class="cls-1" points="3.88 43.17 3.88 148.51 24.94 160.67 44.04 149.64"/><polyline class="cls-1" points="44.04 149.97 39.67 152.49 44.04 155"/><line class="cls-1" x1="14.83" y1="154.84" x2="14.83" y2="160.18"/><line class="cls-1" x1="35.04" y1="154.83" x2="35.04" y2="160.18"/><polyline class="cls-1" points="13.99 154.35 0.38 162.21 0.38 169.99 21.43 182.14 35.46 174.04"/><polyline class="cls-1" points="14.83 178.34 14.83 184.49 24.94 190.33 29.71 187.57 42.48 194.95 44.04 194.05"/><polyline class="cls-1" points="248.21 143.29 235.77 150.49 235.77 151.02 225.66 156.85 215.56 151.02 215.56 148.26 206.72 143.17 206.72 103.35"/><line class="cls-1" x1="215.56" y1="148.26" x2="227.6" y2="155.21"/><line class="cls-1" x1="227.6" y1="155.21" x2="235.77" y2="150.49"/><line class="cls-1" x1="132.99" y1="85.64" x2="75.2" y2="119.01"/><line class="cls-1" x1="153.21" y1="88.38" x2="153.21" y2="90.65"/><line class="cls-1" x1="132.99" y1="85.3" x2="132.99" y2="90.65"/><line class="cls-1" x1="221.46" y1="48.76" x2="228.76" y2="52.97"/><line class="cls-1" x1="228.76" y1="52.97" x2="249.8" y2="40.81"/><line class="cls-1" x1="207.7" y1="32.72" x2="207.7" y2="40.82"/><line class="cls-1" x1="207.7" y1="32.72" x2="214.99" y2="28.51"/><line class="cls-1" x1="248.21" y1="143.3" x2="248.21" y2="106.45"/></g><g id="Medium_Lines" data-name="Medium Lines"><line class="cls-2" x1="143.1" y1="96.48" x2="143.1" y2="91.13"/><line class="cls-2" x1="143.1" y1="96.48" x2="153.21" y2="90.65"/><line class="cls-2" x1="132.99" y1="90.65" x2="143.1" y2="96.48"/><line class="cls-2" x1="145.47" y1="100.12" x2="137.92" y2="95.76"/><line class="cls-2" x1="145.47" y1="100.12" x2="159.5" y2="92.01"/><line class="cls-2" x1="145.47" y1="107.9" x2="159.5" y2="99.79"/><line class="cls-2" x1="137.92" y1="103.54" x2="145.47" y2="107.9"/><line class="cls-2" x1="130.62" y1="107.75" x2="137.92" y2="103.54"/><line class="cls-2" x1="145.47" y1="116.33" x2="130.62" y2="107.75"/><line class="cls-2" x1="145.47" y1="116.33" x2="166.52" y2="104.17"/><line class="cls-2" x1="145.47" y1="124.75" x2="145.47" y2="116.33"/><line class="cls-2" x1="225.66" y1="154.09" x2="225.66" y2="156.85"/><line class="cls-2" x1="227.6" y1="115.39" x2="227.6" y2="155.21"/><line class="cls-2" x1="137.92" y1="95.76" x2="75.2" y2="131.98"/><line class="cls-2" x1="214.73" y1="52.65" x2="214.73" y2="60.76"/><line class="cls-2" x1="193.66" y1="40.5" x2="214.73" y2="52.65"/><line class="cls-2" x1="81.26" y1="136.25" x2="81.26" y2="152.3"/><line class="cls-2" x1="84.68" y1="147.24" x2="105.79" y2="159.16"/><line class="cls-2" x1="221.46" y1="48.76" x2="207.7" y2="40.82"/><line class="cls-2" x1="126.74" y1="147.01" x2="105.79" y2="159.16"/><line class="cls-2" x1="105.79" y1="159.16" x2="106.07" y2="198.55"/><line class="cls-2" x1="221.32" y1="56.94" x2="228.48" y2="52.81"/><line class="cls-2" x1="227.6" y1="60.56" x2="221.32" y2="56.94"/><line class="cls-2" x1="227.6" y1="60.56" x2="248.21" y2="48.65"/><line class="cls-2" x1="227.6" y1="103.36" x2="227.6" y2="60.56"/><line class="cls-2" x1="227.6" y1="103.36" x2="206.72" y2="91.31"/><line class="cls-2" x1="248.21" y1="91.44" x2="227.6" y2="103.36"/><line class="cls-2" x1="230.18" y1="108.77" x2="256.83" y2="93.37"/><line class="cls-2" x1="230.18" y1="108.77" x2="230.18" y2="116.88"/><line class="cls-2" x1="150.83" y1="63.01" x2="230.18" y2="108.77"/><line class="cls-2" x1="150.83" y1="63.01" x2="150.83" y2="71.11"/><line class="cls-2" x1="150.83" y1="63.01" x2="164.15" y2="55.32"/><line class="cls-2" x1="143.1" y1="24.69" x2="143.1" y2="91.13"/><line class="cls-2" x1="143.1" y1="24.69" x2="164.15" y2="12.53"/><line class="cls-2" x1="122.05" y1="12.53" x2="143.1" y2="24.69"/><line class="cls-2" x1="106.07" y1="198.55" x2="106.1" y2="204.03"/><line class="cls-2" x1="44.04" y1="103.76" x2="54.15" y2="109.59"/><line class="cls-2" x1="75.2" y1="97.43" x2="54.15" y2="109.59"/><line class="cls-2" x1="45.3" y1="98.16" x2="49.51" y2="100.59"/><line class="cls-2" x1="49.51" y1="100.59" x2="59.62" y2="94.76"/><line class="cls-2" x1="54.15" y1="226.6" x2="54.15" y2="109.59"/><line class="cls-2" x1="49.51" y1="223.93" x2="49.51" y2="228.63"/><line class="cls-2" x1="24.94" y1="160.67" x2="24.94" y2="166.02"/><line class="cls-2" x1="0.38" y1="162.21" x2="21.43" y2="174.36"/><line class="cls-2" x1="21.43" y1="174.36" x2="44.04" y2="161.31"/><line class="cls-2" x1="35.46" y1="174.04" x2="44.04" y2="169.09"/><line class="cls-2" x1="21.43" y1="174.36" x2="21.43" y2="182.14"/><line class="cls-2" x1="24.94" y1="180.12" x2="24.94" y2="190.33"/><line class="cls-2" x1="29.71" y1="187.57" x2="29.71" y2="177.36"/><line class="cls-2" x1="35.46" y1="174.04" x2="42.48" y2="178.09"/><line class="cls-2" x1="42.48" y1="178.09" x2="44.04" y2="177.19"/><line class="cls-2" x1="42.48" y1="178.09" x2="42.48" y2="194.95"/><line class="cls-2" x1="14.83" y1="160.18" x2="24.94" y2="166.02"/><line class="cls-2" x1="24.94" y1="166.02" x2="35.04" y2="160.18"/><line class="cls-2" x1="3.88" y1="43.17" x2="24.94" y2="55.33"/><line class="cls-2" x1="45.99" y1="43.17" x2="24.94" y2="55.33"/><line class="cls-2" x1="24.94" y1="55.33" x2="24.94" y2="160.67"/><line class="cls-2" x1="207.7" y1="32.72" x2="228.76" y2="44.87"/><line class="cls-2" x1="228.76" y1="44.87" x2="228.76" y2="52.97"/><line class="cls-2" x1="228.76" y1="44.87" x2="249.8" y2="32.71"/><line class="cls-2" x1="137.92" y1="95.76" x2="137.92" y2="103.54"/><line class="cls-2" x1="145.47" y1="100.12" x2="145.47" y2="107.9"/><line class="cls-2" x1="214.73" y1="52.65" x2="221.46" y2="48.76"/></g></svg>