<?xml version="1.0" encoding="utf-8"?>
<!-- Generator: Adobe Illustrator 25.1.0, SVG Export Plug-In . SVG Version: 6.00 Build 0)  -->
<svg version="1.1" xmlns="http://www.w3.org/2000/svg" xmlns:xlink="http://www.w3.org/1999/xlink" x="0px" y="0px"
	 viewBox="0 0 432 432" style="enable-background:new 0 0 432 432;" xml:space="preserve">
<style type="text/css">
	.st0{fill:none;stroke:#000000;stroke-width:0.75;stroke-linecap:round;stroke-linejoin:round;}
	.st1{fill:none;stroke:#000000;stroke-width:0.25;stroke-linecap:round;stroke-linejoin:round;}
</style>
<g id="Wide_Lines">
	<line class="st0" x1="266.37" y1="114.9" x2="266.37" y2="132.13"/>
	<polyline class="st0" points="247.49,154.52 359.94,219.36 397.7,197.53 397.7,186.05 385.48,179.01 	"/>
	<polyline class="st0" points="266.37,165.66 236.54,182.89 206.71,165.66 206.71,71.51 236.54,54.28 266.37,71.51 266.37,114.9 
		270.34,112.61 326.69,145.1 	"/>
	<polyline class="st0" points="338.4,94.14 357.89,82.88 387.74,100.09 387.74,111.58 376.99,117.79 	"/>
	<polyline class="st0" points="338.4,94.14 338,93.91 308.19,111.14 308.19,122.63 338.04,139.84 347.39,134.44 	"/>
	<line class="st0" x1="326.69" y1="133.3" x2="326.69" y2="183.14"/>
	<line class="st0" x1="184.11" y1="335.12" x2="198.44" y2="326.76"/>
	<line class="st0" x1="169.8" y1="327.03" x2="184.11" y2="335.12"/>
	<line class="st0" x1="103.93" y1="196.29" x2="97.96" y2="199.74"/>
	<polyline class="st0" points="376.99,117.79 385.48,122.68 385.48,183.33 	"/>
	<polyline class="st0" points="250.86,174.62 250.86,178.98 259.79,184.14 259.79,195.62 269.73,201.36 269.73,213.3 239.9,230.53 
		210.07,213.3 210.07,211.52 	"/>
	<line class="st0" x1="218.86" y1="206.44" x2="140.32" y2="251.78"/>
	<polyline class="st0" points="140.32,264.59 148.92,269.56 153.79,266.74 	"/>
	<line class="st0" x1="163.24" y1="256.92" x2="163.24" y2="238.55"/>
	<polygon class="st0" points="153.76,262.39 183.59,245.17 213.36,262.06 213.76,317.87 198.44,326.76 198.44,334.59 184.11,342.86 
		169.8,334.59 169.8,327.03 154.17,318.2 	"/>
	<polyline class="st0" points="97.96,367.61 97.96,374.27 103.93,377.72 109.7,374.39 	"/>
	<polygon class="st0" points="96.17,366.58 110.49,374.85 140.32,357.62 140.32,191.82 126,183.55 118.25,188.03 112.28,184.58 
		97.96,192.85 97.96,199.74 96.17,200.77 	"/>
	<polyline class="st0" points="39.27,114.92 69.1,97.7 98.94,114.92 98.94,192.29 	"/>
	<polyline class="st0" points="39.27,114.92 39.27,264.2 69.1,281.42 96.17,265.79 	"/>
	<polyline class="st0" points="96.17,266.25 89.99,269.82 96.17,273.39 	"/>
	<line class="st0" x1="54.78" y1="273.15" x2="54.78" y2="280.73"/>
	<line class="st0" x1="83.42" y1="273.15" x2="83.42" y2="280.73"/>
	<polyline class="st0" points="53.59,272.46 34.3,283.6 34.3,294.62 64.13,311.85 84.02,300.37 	"/>
	<polyline class="st0" points="54.78,306.45 54.78,315.18 69.1,323.45 75.87,319.54 93.96,329.99 96.17,328.72 	"/>
	<polyline class="st0" points="385.48,256.8 367.85,266.99 367.85,267.75 353.53,276.01 339.21,267.75 339.21,263.84 326.69,256.62 
		326.69,200.19 	"/>
	<line class="st0" x1="339.21" y1="263.84" x2="356.28" y2="273.68"/>
	<line class="st0" x1="356.28" y1="273.68" x2="367.85" y2="266.99"/>
	<line class="st0" x1="222.22" y1="175.1" x2="140.32" y2="222.39"/>
	<line class="st0" x1="250.86" y1="178.98" x2="250.86" y2="182.2"/>
	<line class="st0" x1="222.22" y1="174.62" x2="222.22" y2="182.2"/>
	<line class="st0" x1="347.58" y1="122.84" x2="357.92" y2="128.81"/>
	<line class="st0" x1="357.92" y1="128.81" x2="387.74" y2="111.58"/>
	<line class="st0" x1="328.07" y1="100.11" x2="328.07" y2="111.6"/>
	<line class="st0" x1="328.07" y1="100.11" x2="338.4" y2="94.14"/>
	<line class="st0" x1="385.48" y1="256.8" x2="385.48" y2="204.6"/>
</g>
<g id="Medium_Lines">
	<line class="st1" x1="236.54" y1="190.46" x2="236.54" y2="182.89"/>
	<line class="st1" x1="236.54" y1="190.46" x2="250.86" y2="182.2"/>
	<line class="st1" x1="222.22" y1="182.2" x2="236.54" y2="190.46"/>
	<line class="st1" x1="239.9" y1="195.62" x2="229.21" y2="189.44"/>
	<line class="st1" x1="239.9" y1="195.62" x2="259.79" y2="184.14"/>
	<line class="st1" x1="239.9" y1="206.64" x2="259.79" y2="195.16"/>
	<line class="st1" x1="229.21" y1="200.47" x2="239.9" y2="206.64"/>
	<line class="st1" x1="218.86" y1="206.44" x2="229.21" y2="200.47"/>
	<line class="st1" x1="239.9" y1="218.58" x2="218.86" y2="206.44"/>
	<line class="st1" x1="239.9" y1="218.58" x2="269.73" y2="201.36"/>
	<line class="st1" x1="239.9" y1="230.53" x2="239.9" y2="218.58"/>
	<line class="st1" x1="353.53" y1="272.1" x2="353.53" y2="276.01"/>
	<line class="st1" x1="356.28" y1="217.26" x2="356.28" y2="273.68"/>
	<line class="st1" x1="229.21" y1="189.44" x2="140.32" y2="240.76"/>
	<line class="st1" x1="338.04" y1="128.36" x2="338.04" y2="139.84"/>
	<line class="st1" x1="308.19" y1="111.14" x2="338.04" y2="128.36"/>
	<line class="st1" x1="148.92" y1="246.82" x2="148.92" y2="269.56"/>
	<line class="st1" x1="153.76" y1="262.39" x2="183.67" y2="279.29"/>
	<line class="st1" x1="347.58" y1="122.84" x2="328.07" y2="111.6"/>
	<line class="st1" x1="213.36" y1="262.06" x2="183.67" y2="279.29"/>
	<line class="st1" x1="183.67" y1="279.29" x2="184.07" y2="335.09"/>
	<line class="st1" x1="347.39" y1="134.44" x2="357.52" y2="128.58"/>
	<line class="st1" x1="356.28" y1="139.56" x2="347.39" y2="134.44"/>
	<line class="st1" x1="356.28" y1="139.56" x2="385.48" y2="122.68"/>
	<line class="st1" x1="356.28" y1="200.21" x2="356.28" y2="139.56"/>
	<line class="st1" x1="356.28" y1="200.21" x2="326.69" y2="183.14"/>
	<line class="st1" x1="385.48" y1="183.33" x2="356.28" y2="200.21"/>
	<line class="st1" x1="359.94" y1="207.88" x2="397.7" y2="186.05"/>
	<line class="st1" x1="359.94" y1="207.88" x2="359.94" y2="219.36"/>
	<line class="st1" x1="247.49" y1="143.04" x2="359.94" y2="207.88"/>
	<line class="st1" x1="247.49" y1="143.04" x2="247.49" y2="154.52"/>
	<line class="st1" x1="247.49" y1="143.04" x2="266.37" y2="132.13"/>
	<line class="st1" x1="236.54" y1="88.73" x2="236.54" y2="182.89"/>
	<line class="st1" x1="236.54" y1="88.73" x2="266.37" y2="71.51"/>
	<line class="st1" x1="206.71" y1="71.51" x2="236.54" y2="88.73"/>
	<line class="st1" x1="184.07" y1="335.09" x2="184.11" y2="342.86"/>
	<line class="st1" x1="96.17" y1="200.77" x2="110.49" y2="209.04"/>
	<line class="st1" x1="140.32" y1="191.82" x2="110.49" y2="209.04"/>
	<line class="st1" x1="97.96" y1="192.85" x2="103.93" y2="196.29"/>
	<line class="st1" x1="103.93" y1="196.29" x2="118.25" y2="188.03"/>
	<line class="st1" x1="110.49" y1="374.85" x2="110.49" y2="209.04"/>
	<line class="st1" x1="103.93" y1="371.06" x2="103.93" y2="377.72"/>
	<line class="st1" x1="69.1" y1="281.42" x2="69.1" y2="289"/>
	<line class="st1" x1="34.3" y1="283.6" x2="64.13" y2="300.83"/>
	<line class="st1" x1="64.13" y1="300.83" x2="96.17" y2="282.33"/>
	<line class="st1" x1="84.02" y1="300.37" x2="96.17" y2="293.35"/>
	<line class="st1" x1="64.13" y1="300.83" x2="64.13" y2="311.85"/>
	<line class="st1" x1="69.1" y1="308.98" x2="69.1" y2="323.45"/>
	<line class="st1" x1="75.87" y1="319.54" x2="75.87" y2="305.07"/>
	<line class="st1" x1="84.02" y1="300.37" x2="93.96" y2="306.11"/>
	<line class="st1" x1="93.96" y1="306.11" x2="96.17" y2="304.83"/>
	<line class="st1" x1="93.96" y1="306.11" x2="93.96" y2="329.99"/>
	<line class="st1" x1="54.78" y1="280.73" x2="69.1" y2="289"/>
	<line class="st1" x1="69.1" y1="289" x2="83.42" y2="280.73"/>
	<line class="st1" x1="39.27" y1="114.92" x2="69.1" y2="132.15"/>
	<line class="st1" x1="98.94" y1="114.92" x2="69.1" y2="132.15"/>
	<line class="st1" x1="69.1" y1="132.15" x2="69.1" y2="281.42"/>
	<line class="st1" x1="328.07" y1="100.11" x2="357.92" y2="117.33"/>
	<line class="st1" x1="357.92" y1="117.33" x2="357.92" y2="128.81"/>
	<line class="st1" x1="357.92" y1="117.33" x2="387.74" y2="100.09"/>
	<line class="st1" x1="229.21" y1="189.44" x2="229.21" y2="200.47"/>
	<line class="st1" x1="239.9" y1="195.62" x2="239.9" y2="206.64"/>
	<line class="st1" x1="338.04" y1="128.36" x2="347.58" y2="122.84"/>
</g>
<g id="Layer_3">
</g>
</svg>
