<?xml version="1.0" encoding="utf-8"?>
<!-- Generator: Adobe Illustrator 25.1.0, SVG Export Plug-In . SVG Version: 6.00 Build 0)  -->
<svg version="1.1" xmlns="http://www.w3.org/2000/svg" xmlns:xlink="http://www.w3.org/1999/xlink" x="0px" y="0px"
	 viewBox="0 0 432 432" style="enable-background:new 0 0 432 432;" xml:space="preserve">
<style type="text/css">
	.st0{fill:none;stroke:#000000;stroke-width:0.3;stroke-linecap:round;stroke-linejoin:round;}
	.st1{fill:none;stroke:#000000;stroke-width:0.75;stroke-linecap:round;stroke-linejoin:round;}
	.st2{fill:none;stroke:#000000;stroke-linecap:round;stroke-linejoin:round;}
</style>
<g id="Layer_01::Medium">
	<line class="st0" x1="349.51" y1="210.96" x2="349.51" y2="213.52"/>
	<line class="st0" x1="317.43" y1="112.37" x2="322.3" y2="101.89"/>
	<line class="st0" x1="334.09" y1="278.09" x2="334.09" y2="280.64"/>
	<line class="st0" x1="71.67" y1="229.21" x2="101.32" y2="246.33"/>
	<line class="st0" x1="381.33" y1="165.44" x2="390.06" y2="146.63"/>
	<line class="st0" x1="202.67" y1="261.9" x2="171.79" y2="260.83"/>
	<line class="st0" x1="382.94" y1="291.59" x2="385.44" y2="290.15"/>
	<line class="st0" x1="350.37" y1="286.07" x2="350.37" y2="283.51"/>
	<line class="st0" x1="97.87" y1="226.97" x2="97.87" y2="224.41"/>
	<line class="st0" x1="315.29" y1="296.88" x2="315.29" y2="299.44"/>
	<line class="st0" x1="372.3" y1="239.87" x2="393.61" y2="218.56"/>
	<line class="st0" x1="97.87" y1="201.39" x2="315.29" y2="273.86"/>
	<line class="st0" x1="315.29" y1="273.86" x2="334.09" y2="255.07"/>
	<path class="st0" d="M140.91,282.47c0,10.75,11.62,17.34,19.8,20.17c9.31,3.22,20,4.03,29.69,2.79"/>
	<line class="st0" x1="342.82" y1="314.75" x2="386.8" y2="306.28"/>
	<line class="st0" x1="216.56" y1="339.05" x2="240.6" y2="334.42"/>
	<line class="st0" x1="70.88" y1="251.78" x2="101.89" y2="269.68"/>
	<line class="st0" x1="57.59" y1="228.76" x2="73.84" y2="238.14"/>
	<line class="st0" x1="334.09" y1="255.07" x2="350.37" y2="260.49"/>
	<line class="st0" x1="350.37" y1="260.49" x2="372.29" y2="238.56"/>
	<line class="st0" x1="115.18" y1="262.01" x2="115.18" y2="264.57"/>
	<line class="st0" x1="101.89" y1="269.68" x2="101.89" y2="272.24"/>
	<line class="st0" x1="334.09" y1="255.07" x2="334.09" y2="257.62"/>
	<path class="st0" d="M38.39,180.52c0,6.21,4.16,11.19,8.71,14.53c4.91,3.61,10.16,5.64,15.98,7.08
		c11.07,2.74,23.84,2.54,34.79-0.74"/>
	<line class="st0" x1="240.6" y1="311.4" x2="274.68" y2="331.07"/>
	<line class="st0" x1="274.68" y1="331.07" x2="342.82" y2="291.73"/>
	<line class="st0" x1="342.82" y1="317.31" x2="342.82" y2="314.75"/>
	<line class="st0" x1="101.89" y1="246.66" x2="115.18" y2="238.99"/>
	<line class="st0" x1="274.68" y1="356.65" x2="274.68" y2="354.09"/>
	<line class="st0" x1="216.56" y1="316.03" x2="240.6" y2="311.4"/>
	<line class="st0" x1="240.6" y1="334.42" x2="240.6" y2="336.98"/>
	<line class="st0" x1="375.06" y1="285.52" x2="386.8" y2="283.26"/>
	<line class="st0" x1="190.4" y1="305.44" x2="190.4" y2="307.99"/>
	<path class="st0" d="M101.32,246.33c6.28-2.71,13.01-6.08,16.62-12.68"/>
	<line class="st0" x1="219.86" y1="337.14" x2="265.55" y2="328.35"/>
	<line class="st0" x1="349.6" y1="281.87" x2="349.6" y2="262.79"/>
	<line class="st0" x1="349.6" y1="281.87" x2="369.44" y2="262.02"/>
	<line class="st0" x1="375.06" y1="285.52" x2="319.45" y2="296.23"/>
	<path class="st0" d="M308.98,207.25c9.04,10.76,27.81,13.35,40.11,12.36c7.4-0.6,14.13-2.14,20.78-5.66
		c5.87-3.11,12.51-8.71,12.51-16.43"/>
	<path class="st0" d="M143,282.47c0,7.07,5.62,12.4,10.96,15.56c5.94,3.52,12.06,5.23,18.81,6.15c12.13,1.65,27.68-0.03,38.33-7.28"
		/>
	<line class="st0" x1="115.18" y1="262.01" x2="141.87" y2="277.42"/>
	<line class="st0" x1="101.89" y1="269.68" x2="115.18" y2="262.01"/>
	<line class="st0" x1="274.68" y1="354.09" x2="342.82" y2="314.75"/>
	<line class="st0" x1="240.6" y1="334.42" x2="274.68" y2="354.09"/>
	<line class="st0" x1="190.4" y1="305.44" x2="219.86" y2="322.45"/>
	<line class="st0" x1="52.97" y1="188.11" x2="182.37" y2="208.13"/>
	<line class="st0" x1="217.06" y1="225.88" x2="222.42" y2="214.32"/>
	<line class="st0" x1="222.42" y1="214.32" x2="349.51" y2="233.98"/>
	<line class="st0" x1="217.06" y1="205.42" x2="217.06" y2="202.86"/>
	<line class="st0" x1="349.51" y1="233.98" x2="356.04" y2="219.93"/>
	<line class="st0" x1="182.37" y1="208.13" x2="217.06" y2="225.88"/>
	<line class="st0" x1="356.04" y1="219.93" x2="356.04" y2="222.49"/>
	<path class="st0" d="M356.04,219.93c6.55-1.2,12.48-3.11,18.14-6.8c5.16-3.36,10.28-8.71,10.28-15.62"/>
	<path class="st0" d="M40.48,203.54c0,8.08,7.23,13.81,13.38,16.88c7.05,3.51,14.11,4.95,21.87,5.34c7.74,0.39,14.98-0.38,22.38-2.8
		c6.55-2.13,14.45-6.25,17.97-12.94"/>
	<line class="st0" x1="241.95" y1="204.86" x2="280.28" y2="210.79"/>
	<line class="st0" x1="215.91" y1="223.69" x2="215.91" y2="204.84"/>
	<line class="st0" x1="280.28" y1="210.79" x2="280.28" y2="202.81"/>
	<line class="st0" x1="191.74" y1="215.48" x2="171.79" y2="214.79"/>
	<line class="st0" x1="175.29" y1="236.72" x2="198.63" y2="237.53"/>
	<line class="st0" x1="349.51" y1="233.98" x2="349.51" y2="236.54"/>
	<line class="st0" x1="222.42" y1="214.32" x2="222.42" y2="216.88"/>
	<line class="st0" x1="182.37" y1="210.68" x2="182.37" y2="208.13"/>
	<line class="st0" x1="52.97" y1="165.09" x2="182.37" y2="185.11"/>
	<line class="st0" x1="319.45" y1="296.23" x2="319.45" y2="295.29"/>
	<line class="st0" x1="217.06" y1="202.86" x2="222.42" y2="191.3"/>
	<path class="st0" d="M140.91,259.45c0,10.75,11.62,17.34,19.8,20.17c9.31,3.22,20,4.03,29.69,2.79"/>
	<line class="st0" x1="190.4" y1="282.41" x2="190.4" y2="284.97"/>
	<line class="st0" x1="190.4" y1="282.41" x2="224.57" y2="302.15"/>
	<line class="st0" x1="222.42" y1="191.3" x2="349.51" y2="210.96"/>
	<line class="st0" x1="350.37" y1="263.05" x2="350.37" y2="260.49"/>
	<line class="st0" x1="97.87" y1="203.95" x2="97.87" y2="201.39"/>
	<line class="st0" x1="315.29" y1="273.86" x2="315.29" y2="276.42"/>
	<line class="st0" x1="349.51" y1="210.96" x2="356.04" y2="196.91"/>
	<line class="st0" x1="375.06" y1="273.11" x2="385.44" y2="267.13"/>
	<line class="st0" x1="373.8" y1="158.63" x2="390.06" y2="123.61"/>
	<line class="st0" x1="383.14" y1="206.01" x2="393.61" y2="195.54"/>
	<line class="st0" x1="182.37" y1="185.11" x2="217.06" y2="202.86"/>
	<line class="st0" x1="182.37" y1="187.66" x2="182.37" y2="185.11"/>
	<line class="st0" x1="222.42" y1="191.3" x2="222.42" y2="193.86"/>
	<line class="st0" x1="217.06" y1="228.44" x2="217.06" y2="225.88"/>
	<line class="st0" x1="356.04" y1="196.91" x2="356.04" y2="199.46"/>
	<path class="st0" d="M356.04,196.91c6.55-1.2,12.48-3.11,18.14-6.8c5.16-3.36,10.28-8.71,10.28-15.62"/>
	<line class="st0" x1="319.45" y1="296.23" x2="318.74" y2="295.99"/>
	<line class="st0" x1="101.32" y1="246.33" x2="101.32" y2="228.11"/>
	<line class="st0" x1="115.18" y1="238.99" x2="115.18" y2="241.55"/>
	<line class="st0" x1="101.89" y1="246.66" x2="101.89" y2="249.22"/>
	<line class="st0" x1="342.82" y1="294.29" x2="342.82" y2="291.73"/>
	<line class="st0" x1="240.6" y1="311.4" x2="240.6" y2="313.96"/>
	<line class="st0" x1="115.18" y1="238.99" x2="141.87" y2="254.39"/>
	<line class="st0" x1="97.87" y1="224.41" x2="315.29" y2="296.88"/>
	<line class="st0" x1="101.32" y1="246.33" x2="101.89" y2="246.66"/>
	<line class="st0" x1="101.89" y1="267.98" x2="129.95" y2="251.78"/>
	<line class="st0" x1="101.89" y1="267.98" x2="101.89" y2="249.22"/>
	<line class="st0" x1="73.83" y1="251.78" x2="101.89" y2="267.98"/>
	<line class="st0" x1="315.29" y1="296.88" x2="334.09" y2="278.09"/>
	<line class="st0" x1="350.37" y1="283.51" x2="372.29" y2="261.58"/>
	<path class="st0" d="M38.39,203.54c0,6.21,4.16,11.19,8.71,14.53c4.91,3.61,10.16,5.64,15.98,7.08
		c11.07,2.74,23.84,2.54,34.79-0.74"/>
	<path class="st0" d="M371.12,238.17c-9.22,3.72-15.14,5.53-25.21,5.84c-4.37,0.13-8.67-0.12-12.99-0.81
		c-4.32-0.69-8.45-1.93-12.57-3.34"/>
	<line class="st0" x1="319.78" y1="271.93" x2="349.6" y2="281.87"/>
	<line class="st0" x1="274.68" y1="333.63" x2="274.68" y2="331.07"/>
	<line class="st0" x1="129.6" y1="179.5" x2="215.91" y2="223.69"/>
	<line class="st0" x1="215.91" y1="223.69" x2="229.27" y2="194.92"/>
	<line class="st0" x1="280.28" y1="210.79" x2="283.73" y2="203.34"/>
	<line class="st0" x1="292.96" y1="323.07" x2="382.94" y2="305.76"/>
	<line class="st0" x1="334.09" y1="278.09" x2="350.37" y2="283.51"/>
</g>
<g id="Layer_01::Heavy">
	<line class="st1" x1="334.09" y1="280.64" x2="350.37" y2="286.07"/>
	<line class="st1" x1="315.29" y1="299.44" x2="334.09" y2="280.64"/>
	<line class="st1" x1="97.87" y1="226.97" x2="315.29" y2="299.44"/>
	<line class="st1" x1="385.44" y1="267.13" x2="369.45" y2="257.9"/>
	<line class="st1" x1="129.95" y1="251.78" x2="129.95" y2="250.07"/>
	<line class="st1" x1="386.8" y1="283.26" x2="375.06" y2="276.48"/>
	<path class="st1" d="M141.87,277.42c-0.63,1.65-0.95,3.28-0.95,5.06"/>
	<path class="st1" d="M384.46,174.49c0-7.08-5.36-12.51-10.66-15.86"/>
	<path class="st1" d="M356.04,199.46c6.55-1.2,12.48-3.11,18.14-6.8c5.16-3.36,10.28-8.71,10.28-15.62"/>
	<line class="st1" x1="143" y1="282.47" x2="143" y2="269.44"/>
	<line class="st1" x1="52.97" y1="188.11" x2="52.97" y2="190.66"/>
	<line class="st1" x1="390.06" y1="146.63" x2="390.06" y2="149.19"/>
	<line class="st1" x1="384.46" y1="197.51" x2="384.46" y2="200.07"/>
	<line class="st1" x1="182.37" y1="187.66" x2="217.06" y2="205.42"/>
	<path class="st1" d="M38.39,206.1c0,6.21,4.16,11.19,8.71,14.53c4.91,3.61,10.16,5.64,15.98,7.08c11.07,2.74,23.84,2.54,34.79-0.74
		"/>
	<line class="st1" x1="318.54" y1="112.55" x2="322.3" y2="104.45"/>
	<line class="st1" x1="374.72" y1="159.21" x2="390.06" y2="126.17"/>
	<line class="st1" x1="349.51" y1="213.52" x2="356.04" y2="199.46"/>
	<line class="st1" x1="222.42" y1="193.86" x2="349.51" y2="213.52"/>
	<line class="st1" x1="217.06" y1="205.42" x2="222.42" y2="193.86"/>
	<line class="st1" x1="52.97" y1="167.64" x2="182.37" y2="187.66"/>
	<line class="st1" x1="390.06" y1="123.61" x2="317.43" y2="112.37"/>
	<line class="st1" x1="375.06" y1="275.67" x2="385.44" y2="269.68"/>
	<line class="st1" x1="372.29" y1="238.56" x2="371.11" y2="238.17"/>
	<line class="st1" x1="140.91" y1="262.01" x2="140.91" y2="259.45"/>
	<line class="st1" x1="171.79" y1="260.83" x2="171.79" y2="251.61"/>
	<line class="st1" x1="390.06" y1="146.63" x2="381.2" y2="145.26"/>
	<line class="st1" x1="93.51" y1="77.73" x2="52.97" y2="165.09"/>
	<path class="st1" d="M384.46,197.51c0-2.76-0.72-5.07-2.09-7.43"/>
	<line class="st1" x1="241.95" y1="204.86" x2="241.95" y2="196.88"/>
	<line class="st1" x1="175.29" y1="236.72" x2="175.29" y2="229.75"/>
	<line class="st1" x1="117.85" y1="81.5" x2="93.51" y2="77.73"/>
	<line class="st1" x1="322.3" y1="101.89" x2="279.93" y2="95.34"/>
	<line class="st1" x1="40.48" y1="203.54" x2="40.48" y2="190.5"/>
	<path class="st1" d="M356.04,222.49c6.55-1.2,12.48-3.11,18.14-6.8c5.16-3.36,10.28-8.71,10.28-15.62"/>
	<line class="st1" x1="279.93" y1="95.34" x2="275.07" y2="105.82"/>
	<line class="st1" x1="275.07" y1="105.82" x2="184.15" y2="91.76"/>
	<line class="st1" x1="182.37" y1="210.68" x2="217.06" y2="228.44"/>
	<path class="st1" d="M184.15,91.76c-5.73-10.45-20.92-14.85-31.08-15.98c-11.39-1.27-24.8,0.23-35.21,5.73"/>
	<line class="st1" x1="349.51" y1="236.54" x2="356.04" y2="222.49"/>
	<line class="st1" x1="222.42" y1="216.88" x2="349.51" y2="236.54"/>
	<line class="st1" x1="217.06" y1="228.44" x2="222.42" y2="216.88"/>
	<line class="st1" x1="52.97" y1="190.66" x2="182.37" y2="210.68"/>
	<line class="st1" x1="52.97" y1="165.09" x2="52.97" y2="167.64"/>
	<line class="st1" x1="390.06" y1="123.61" x2="390.06" y2="126.17"/>
	<line class="st1" x1="322.3" y1="104.45" x2="322.3" y2="101.89"/>
	<line class="st1" x1="384.46" y1="174.49" x2="384.46" y2="177.05"/>
	<line class="st1" x1="61.83" y1="169.01" x2="52.97" y2="188.11"/>
	<line class="st1" x1="190.4" y1="307.99" x2="219.86" y2="325"/>
	<line class="st1" x1="240.6" y1="336.98" x2="274.68" y2="356.65"/>
	<line class="st1" x1="385.44" y1="267.13" x2="385.44" y2="269.68"/>
	<line class="st1" x1="274.68" y1="356.65" x2="342.82" y2="317.31"/>
	<line class="st1" x1="57.59" y1="231.32" x2="73.84" y2="240.7"/>
	<line class="st1" x1="70.88" y1="254.34" x2="101.89" y2="272.24"/>
	<line class="st1" x1="369.44" y1="262.02" x2="369.44" y2="243.97"/>
	<line class="st1" x1="101.89" y1="272.24" x2="115.18" y2="264.57"/>
	<line class="st1" x1="219.86" y1="337.14" x2="219.86" y2="317.94"/>
	<line class="st1" x1="382.94" y1="305.76" x2="382.94" y2="286.56"/>
	<line class="st1" x1="73.83" y1="251.78" x2="73.83" y2="233.02"/>
	<line class="st1" x1="115.18" y1="264.57" x2="141.22" y2="279.6"/>
	<path class="st1" d="M140.91,262.01c0,10.75,11.62,17.34,19.8,20.17c9.31,3.22,20,4.03,29.69,2.79"/>
	<line class="st1" x1="342.82" y1="294.29" x2="386.8" y2="285.82"/>
	<line class="st1" x1="216.56" y1="339.05" x2="216.56" y2="341.61"/>
	<line class="st1" x1="216.56" y1="318.59" x2="240.6" y2="313.96"/>
	<line class="st1" x1="216.56" y1="341.61" x2="240.6" y2="336.98"/>
	<line class="st1" x1="224.57" y1="302.15" x2="216.56" y2="316.03"/>
	<path class="st1" d="M141.87,254.39c-0.63,1.65-0.95,3.28-0.95,5.06"/>
	<line class="st1" x1="115.18" y1="241.55" x2="141.23" y2="256.58"/>
	<line class="st1" x1="70.88" y1="231.32" x2="101.89" y2="249.22"/>
	<line class="st1" x1="274.68" y1="333.63" x2="342.82" y2="294.29"/>
	<line class="st1" x1="240.6" y1="313.96" x2="274.68" y2="333.63"/>
	<line class="st1" x1="190.4" y1="284.97" x2="223.46" y2="304.06"/>
	<line class="st1" x1="342.82" y1="317.31" x2="386.8" y2="308.84"/>
	<line class="st1" x1="386.8" y1="308.84" x2="386.8" y2="306.28"/>
	<line class="st1" x1="385.44" y1="290.15" x2="385.44" y2="292.7"/>
	<line class="st1" x1="57.59" y1="228.76" x2="57.59" y2="231.32"/>
	<path class="st1" d="M38.39,183.08c0,6.21,4.16,11.19,8.71,14.53c4.91,3.61,10.16,5.64,15.98,7.08
		c11.07,2.74,23.84,2.54,34.79-0.74"/>
	<line class="st1" x1="372.29" y1="241.12" x2="372.29" y2="238.56"/>
	<line class="st1" x1="70.88" y1="251.78" x2="70.88" y2="254.34"/>
	<line class="st1" x1="371.13" y1="220.58" x2="393.61" y2="198.1"/>
	<line class="st1" x1="350.37" y1="263.05" x2="372.29" y2="241.12"/>
	<line class="st1" x1="334.09" y1="257.62" x2="350.37" y2="263.05"/>
	<line class="st1" x1="315.29" y1="276.42" x2="334.09" y2="257.62"/>
	<line class="st1" x1="97.87" y1="203.95" x2="315.29" y2="276.42"/>
	<line class="st1" x1="140.91" y1="285.03" x2="140.91" y2="282.47"/>
	<path class="st1" d="M140.91,285.03c0,10.75,11.62,17.34,19.8,20.17c9.31,3.22,20,4.03,29.69,2.79"/>
	<line class="st1" x1="385.44" y1="290.15" x2="382.94" y2="288.7"/>
	<line class="st1" x1="386.8" y1="285.82" x2="386.8" y2="283.26"/>
	<line class="st1" x1="219.86" y1="333.33" x2="216.56" y2="339.05"/>
	<line class="st1" x1="73.84" y1="250.07" x2="70.88" y2="251.78"/>
	<line class="st1" x1="171.79" y1="209.05" x2="171.79" y2="214.79"/>
	<line class="st1" x1="216.56" y1="316.03" x2="216.56" y2="318.59"/>
	<line class="st1" x1="101.89" y1="249.22" x2="115.18" y2="241.55"/>
	<line class="st1" x1="369.45" y1="245.29" x2="393.61" y2="221.12"/>
	<path class="st1" d="M40.49,196.09c-1.37,2.37-2.1,4.68-2.1,7.45"/>
	<line class="st1" x1="372.29" y1="264.14" x2="372.29" y2="261.58"/>
	<line class="st1" x1="382.94" y1="294.14" x2="385.44" y2="292.7"/>
	<line class="st1" x1="393.61" y1="218.56" x2="393.61" y2="221.12"/>
	<line class="st1" x1="38.39" y1="183.08" x2="38.39" y2="180.52"/>
	<path class="st1" d="M54.51,161.78c-7.12,3.12-16.12,9.41-16.12,18.74"/>
	<line class="st1" x1="38.39" y1="206.1" x2="38.39" y2="203.54"/>
	<line class="st1" x1="382.03" y1="166.48" x2="390.06" y2="149.19"/>
	<line class="st1" x1="60.58" y1="227.03" x2="57.59" y2="228.76"/>
	<line class="st1" x1="393.61" y1="195.54" x2="393.61" y2="198.1"/>
	<line class="st1" x1="350.37" y1="286.07" x2="372.29" y2="264.14"/>
	<line class="st1" x1="371.12" y1="238.17" x2="371.12" y2="217.48"/>
	<line class="st1" x1="372.29" y1="286.06" x2="372.29" y2="264.14"/>
	<line class="st1" x1="70.88" y1="229.12" x2="70.88" y2="231.32"/>
	<line class="st1" x1="320.35" y1="239.86" x2="320.35" y2="232.03"/>
	<line class="st1" x1="319.74" y1="112.73" x2="319.74" y2="109.96"/>
	<line class="st1" x1="382.38" y1="184.47" x2="382.38" y2="197.51"/>
	<line class="st1" x1="393.61" y1="218.56" x2="378.26" y2="213.45"/>
	<line class="st1" x1="372.29" y1="261.58" x2="369.46" y2="260.64"/>
	<line class="st1" x1="386.8" y1="306.28" x2="382.94" y2="304.05"/>
	<line class="st1" x1="393.61" y1="195.54" x2="383.4" y2="192.14"/>
</g>
<g id="Layer_01">
	<line class="st2" x1="179.9" y1="210.3" x2="179.9" y2="210.29"/>
	<line class="st2" x1="254.44" y1="256.13" x2="254.45" y2="256.12"/>
	<line class="st2" x1="255.68" y1="256.55" x2="255.68" y2="256.54"/>
	<line class="st2" x1="182.11" y1="210.64" x2="182.12" y2="210.63"/>
	<line class="st2" x1="118.96" y1="210.97" x2="118.96" y2="210.96"/>
	<line class="st2" x1="120.35" y1="178.06" x2="120.34" y2="178.07"/>
	<line class="st2" x1="332.37" y1="259.51" x2="332.26" y2="259.45"/>
	<line class="st2" x1="244.92" y1="197.34" x2="244.92" y2="197.34"/>
	<line class="st2" x1="85.08" y1="172.59" x2="85.06" y2="172.61"/>
	<line class="st2" x1="187.96" y1="213.54" x2="187.95" y2="213.54"/>
	<path class="st2" d="M53.58,186.8c-0.01,0.01-0.02,0.01-0.03,0.02"/>
</g>
<g id="Layer_4">
</g>
</svg>
